<svg width="322" height="250" viewBox="0 0 322 250" fill="none" xmlns="http://www.w3.org/2000/svg">
<g clip-path="url(#clip0_1_1021)">
<path d="M42.8871 246.248H2.01757C1.27886 246.248 0.680023 246.847 0.680023 247.586V248.232C0.680023 248.971 1.27886 249.57 2.01757 249.57H42.8871C43.6258 249.57 44.2246 248.971 44.2246 248.232V247.586C44.2246 246.847 43.6258 246.248 42.8871 246.248Z" fill="#ADBEC4"/>
<path d="M314.261 246.248H273.391C272.652 246.248 272.054 246.847 272.054 247.586V248.232C272.054 248.971 272.652 249.57 273.391 249.57H314.261C314.999 249.57 315.598 248.971 315.598 248.232V247.586C315.598 246.847 314.999 246.248 314.261 246.248Z" fill="#ADBEC4"/>
<path d="M99.8815 246.248H59.012C58.2733 246.248 57.6744 246.847 57.6744 247.586V248.232C57.6744 248.971 58.2733 249.57 59.012 249.57H99.8815C100.62 249.57 101.219 248.971 101.219 248.232V247.586C101.219 246.847 100.62 246.248 99.8815 246.248Z" fill="#ADBEC4"/>
<path d="M177.088 246.248H110.953C110.215 246.248 109.616 246.847 109.616 247.586V248.232C109.616 248.971 110.215 249.57 110.953 249.57H177.088C177.826 249.57 178.425 248.971 178.425 248.232V247.586C178.425 246.847 177.826 246.248 177.088 246.248Z" fill="#ADBEC4"/>
<path d="M251.47 246.248H187.565C186.827 246.248 186.228 246.847 186.228 247.586V248.232C186.228 248.971 186.827 249.57 187.565 249.57H251.47C252.209 249.57 252.808 248.971 252.808 248.232V247.586C252.808 246.847 252.209 246.248 251.47 246.248Z" fill="#ADBEC4"/>
<path d="M20.3717 195.644C20.3717 195.644 31.5179 225.367 32.1867 234.73C32.1867 234.73 35.0104 236.96 39.7661 235.028C39.7661 235.028 39.9148 206.568 35.2333 197.799C30.5519 189.031 20.3717 195.644 20.3717 195.644Z" fill="#FF8B66"/>
<path d="M17.9195 247.883H41.4009C42.0047 245.586 41.8216 243.153 40.8808 240.972C40.8808 240.972 41.9211 236.96 41.5496 235.622C41.178 234.284 36.348 232.65 35.0104 233.987C34.6703 234.383 34.4156 234.845 34.2621 235.343C34.1087 235.842 34.0599 236.367 34.1187 236.885C33.45 233.17 31.7409 232.873 30.1061 234.359C28.4713 235.845 30.4776 235.102 30.1804 237.554C30.1061 237.703 30.1061 237.851 30.0318 238C29.7026 238.7 29.1549 239.273 28.4713 239.635L27.8768 240.006L26.6136 240.452C25.8901 240.686 25.1421 240.836 24.3844 240.898C21.1891 241.195 19.8516 241.418 18.3654 243.053C16.8792 244.688 17.8452 246.025 17.8452 246.025L17.9195 247.883Z" fill="#CFD8DC"/>
<path d="M30.0318 238C29.879 238.365 29.6512 238.694 29.363 238.966C29.9083 238.716 30.5192 238.645 31.1071 238.766C31.695 238.886 32.2293 239.19 32.6325 239.635L33.227 238.892C32.9156 238.356 32.4073 237.963 31.8106 237.797C31.2138 237.63 30.5755 237.703 30.0318 238Z" fill="#ADBEC4"/>
<path d="M30.4776 241.344L31.295 240.824C31.188 240.36 30.9483 239.937 30.6053 239.607C30.2622 239.278 29.8306 239.055 29.363 238.966C29.1132 239.246 28.81 239.473 28.4713 239.635C28.9248 239.722 29.348 239.925 29.6996 240.225C30.0511 240.524 30.3192 240.91 30.4776 241.344Z" fill="#ADBEC4"/>
<path d="M28.2484 242.235L29.0658 241.79C29.021 241.42 28.8901 241.066 28.6836 240.756C28.4771 240.447 28.2008 240.19 27.8768 240.006L26.6136 240.452C27.004 240.605 27.3543 240.845 27.6377 241.154C27.921 241.463 28.1299 241.833 28.2484 242.235Z" fill="#ADBEC4"/>
<path d="M68.3748 242.235C69.0892 241.705 69.6736 241.019 70.0839 240.229C70.3446 238.331 70.3446 236.406 70.0839 234.507C69.638 231.609 70.9013 229.232 75.0625 228.34C79.2238 227.448 81.453 229.38 80.487 237.48C81.0815 240.824 81.2301 244.613 79.8183 247.883H67.4831C67.4831 247.883 65.5511 243.647 68.3748 242.235Z" fill="#CFD8DC"/>
<path d="M57.5258 198.765C57.7777 204.464 59.328 210.03 62.0586 215.039C66.6657 223.435 72.3875 234.953 72.3875 234.953C72.3875 234.953 76.1772 238.669 78.6294 232.575C78.6294 232.575 76.9203 211.1 72.9819 203.298C69.0436 195.496 57.5258 198.765 57.5258 198.765Z" fill="#FF8B66"/>
<path d="M77.7377 235.771C77.7377 235.771 78.8523 233.393 77.812 232.427C76.7717 231.461 75.657 233.244 73.8736 232.873C72.0902 232.501 71.7187 231.238 71.2729 232.873C70.827 234.507 71.4215 239.858 77.7377 235.771Z" fill="#CFD8DC"/>
<path d="M71.1985 235.622C71.1985 235.622 75.8799 237.331 78.2578 235.622L77.6633 237.703C77.6633 237.703 72.6103 238.223 71.8673 236.96L71.1985 235.622Z" fill="#ADBEC4"/>
<path d="M71.2729 238.149C71.2729 238.149 75.5084 237.554 77.5891 238.594V239.635C77.5891 239.635 72.0159 238.297 70.2325 239.635L71.2729 238.149Z" fill="#ADBEC4"/>
<path d="M77.8119 241.715C77.4715 241.08 76.9691 240.546 76.3558 240.168C75.7424 239.789 75.0399 239.58 74.3195 239.56C72.7795 239.466 71.2549 239.913 70.0096 240.824C71.2889 240.35 72.6617 240.183 74.0172 240.338C75.3726 240.493 76.6726 240.965 77.8119 241.715Z" fill="#ADBEC4"/>
<path d="M76.623 196.61C76.2326 197.448 75.7597 198.244 75.2112 198.988L74.8396 199.434C72.2388 202.629 66.5914 206.865 56.2626 202.703L55.6681 201.143L55.4452 200.623C54.6293 198.631 54.0072 196.566 53.5875 194.455C50.9124 179.445 49.872 168.596 48.4602 162.428C44.5219 172.014 35.6049 190.591 35.2333 191.334C34.8618 192.077 36.7195 198.765 36.7195 198.765C29.2887 201.143 18.5883 198.096 18.5883 198.096C18.5883 198.096 15.393 188.659 14.8729 181.897C14.5013 176.77 27.5053 147.864 33.5985 134.637L34.0444 133.597L36.7195 127.949L47.1226 131.516L72.3874 142.885C72.3874 142.885 72.8333 143.406 73.2048 148.607C73.2222 148.732 73.247 148.856 73.2791 148.979C73.5021 152.1 73.725 156.781 73.8736 163.692V164.138C73.8736 165.624 73.8736 167.258 73.9479 169.042V183.755C73.9479 185.39 73.8736 187.099 73.8736 188.882C73.8736 190.666 75.1368 193.564 75.9542 195.273L76.1772 195.719C76.2866 196.034 76.4365 196.333 76.623 196.61Z" fill="#0C476B"/>
<path d="M75.2111 198.988L74.8396 199.434C73.6507 197.502 71.8673 194.158 71.4957 191.855C71.1242 189.551 70.604 175.655 71.4957 162.057C72.3874 148.459 69.4151 135.975 69.4151 135.826L69.9353 135.677C69.9353 135.826 72.9076 148.83 72.0159 162.131C71.1242 175.432 71.4214 188.511 72.0159 191.78C72.3874 193.861 74.0965 196.982 75.2111 198.988Z" fill="#0E3944"/>
<path d="M71.2728 147.195C68.9846 146.427 66.8898 145.172 65.1325 143.518C63.3752 141.863 61.9969 139.847 61.0926 137.61L61.6871 137.387C61.6871 137.461 63.6934 143.851 71.4957 146.675L71.2728 147.195Z" fill="#0E3944"/>
<path d="M41.4752 132.408C41.0941 132.542 40.6887 132.593 40.2863 132.557C38.7258 132.631 35.9021 132.854 33.5986 134.637L34.0444 133.597C35.9649 132.571 38.109 132.035 40.2863 132.036L41.178 131.888L41.4752 132.408Z" fill="#0E3944"/>
<path d="M48.2373 162.577C42.3669 150.836 49.9464 135.083 50.0207 134.934L50.5408 135.232C50.4665 135.38 42.9614 150.836 48.6831 162.28L48.2373 162.577Z" fill="#0E3944"/>
<path d="M47.0484 151.134C46.7447 151.136 46.443 151.086 46.1567 150.985L46.3053 150.465C46.6531 150.568 47.019 150.594 47.378 150.543C47.737 150.492 48.0808 150.364 48.3859 150.168C49.2776 149.647 49.7978 148.533 50.0207 146.898C50.5409 141.919 54.3306 135.826 54.5535 135.603L54.9994 135.9C54.925 135.9 51.1353 142.142 50.5409 146.972C50.3179 148.756 49.7235 150.019 48.6832 150.688C48.1988 151.005 47.6267 151.161 47.0484 151.134Z" fill="#0E3944"/>
<path d="M18.8112 22.1345C18.8112 22.1345 19.7029 19.9796 23.567 19.9796C27.431 19.9796 27.7282 21.6144 27.7282 21.6144C29.5116 26.8902 31.4436 46.8792 32.1124 47.6222L54.7764 65.0104C42.7385 65.2333 42.2926 85.2222 42.2926 85.2222C41.8468 80.3179 25.1274 68.057 20.8176 60.0317C16.5077 52.0064 14.9472 34.2468 18.8112 22.1345Z" fill="#F2A668"/>
<path d="M90.8902 93.5447C89.1068 113.682 81.8246 133.225 79.2981 141.325C78.778 143.034 78.4064 144.074 78.4064 144.074C78.4064 144.074 38.8745 138.947 34.1931 128.247L34.416 127.429C35.5306 122.525 41.401 102.833 42.0697 86.7827C42.8128 68.8744 48.8318 62.4839 52.4729 63.3013C52.4729 63.3013 60.6468 69.7661 65.8484 69.7661C71.0499 69.7661 83.608 64.0443 83.608 64.0443C83.608 64.0443 93.1195 69.023 90.8902 93.5447Z" fill="#FFB878"/>
<path d="M65.9227 62.4096C67.2359 62.4096 68.3005 61.345 68.3005 60.0317C68.3005 58.7185 67.2359 57.6539 65.9227 57.6539C64.6094 57.6539 63.5448 58.7185 63.5448 60.0317C63.5448 61.345 64.6094 62.4096 65.9227 62.4096Z" fill="#F24052"/>
<path d="M114.817 23.5464C114.817 23.5464 113.926 21.3914 109.987 21.3914C106.049 21.3914 105.9 23.1005 105.9 23.1005C104.117 28.3021 102.185 48.291 101.516 49.0341C100.848 49.7772 78.8523 66.4222 78.8523 66.4222C78.3321 80.3922 91.3361 86.6341 91.3361 86.6341C91.7076 81.7297 108.501 69.4689 112.737 61.4436C116.972 53.4183 118.681 35.7329 114.817 23.5464Z" fill="#F2A668"/>
<path d="M60.944 69.4689C60.944 69.4689 58.789 70.3606 58.3432 71.2523C57.8973 72.144 59.5321 76.0823 62.7274 76.3795C65.9226 76.6768 72.0159 73.0357 71.7187 71.7724C71.4214 70.5092 66.9629 69.0973 60.944 69.4689Z" fill="#F2A668"/>
<path d="M60.5724 65.0104C60.5724 65.0104 61.8357 69.9147 59.978 71.8467C59.978 71.8467 62.9503 76.6768 69.638 71.7724C69.638 71.7724 68.3748 68.5772 69.638 66.4965L60.5724 65.0104Z" fill="#EF6E4B"/>
<path d="M79.5953 51.6349C79.5876 51.0676 79.3834 50.5206 79.0176 50.087C78.6517 49.6534 78.1469 49.3601 77.589 49.257C78.052 48.8073 78.319 48.1932 78.3321 47.5479C78.3321 46.9173 78.0816 46.3125 77.6356 45.8665C77.1897 45.4206 76.5849 45.1701 75.9542 45.1701C76.2127 44.773 76.3424 44.306 76.3258 43.8325C76.3357 43.5141 76.2816 43.1968 76.1666 42.8997C76.0515 42.6026 75.8779 42.3316 75.6561 42.1029C75.4343 41.8741 75.1688 41.6923 74.8754 41.5682C74.5819 41.4441 74.2665 41.3802 73.9479 41.3804C73.6732 41.3764 73.4005 41.4269 73.1454 41.529C72.8903 41.631 72.658 41.7825 72.4617 41.9748C72.4617 41.3245 72.2034 40.7007 71.7435 40.2409C71.2837 39.781 70.6599 39.5226 70.0096 39.5226C69.6096 39.5307 69.2177 39.6365 68.868 39.8307C68.5182 40.025 68.2214 40.3019 68.0033 40.6373C67.8445 40.1543 67.5351 39.735 67.1205 39.4408C66.7059 39.1466 66.208 38.993 65.6997 39.0025C65.2787 38.9987 64.8642 39.1068 64.4987 39.3157C64.1331 39.5246 63.8296 39.8268 63.6191 40.1914C63.1723 39.7791 62.5919 39.5416 61.9843 39.5226C61.3786 39.5215 60.7952 39.7515 60.3533 40.1658C59.9114 40.5801 59.6443 41.1474 59.6064 41.7519C59.2025 41.5092 58.7402 41.3807 58.2689 41.3804C57.9503 41.3802 57.6349 41.4441 57.3414 41.5682C57.048 41.6923 56.7825 41.8741 56.5606 42.1029C56.3388 42.3316 56.1653 42.6026 56.0502 42.8997C55.9352 43.1968 55.8811 43.5141 55.891 43.8325C55.879 44.0092 55.9044 44.1864 55.9653 44.3527H55.891C55.2407 44.3527 54.6169 44.611 54.1571 45.0709C53.6972 45.5308 53.4388 46.1545 53.4388 46.8049C53.4702 47.4098 53.706 47.9861 54.1076 48.4396C53.5634 48.5577 53.0757 48.8575 52.7245 49.2897C52.3734 49.7219 52.1798 50.2607 52.1756 50.8175C52.1817 51.3121 52.3328 51.794 52.6102 52.2034C52.8876 52.6129 53.279 52.932 53.7361 53.1211C53.4245 53.3348 53.1724 53.6243 53.0034 53.9623C52.8345 54.3002 52.7542 54.6756 52.7701 55.0531C52.7655 55.6355 52.9748 56.1992 53.3583 56.6375C53.7418 57.0758 54.2729 57.3582 54.8507 57.4309C55.186 58.6898 55.9816 59.777 57.0799 60.4776C58.1203 61.4436 67.0372 62.4839 71.3471 62.1124C71.6851 62.442 72.111 62.667 72.5738 62.7604C73.0365 62.8539 73.5164 62.8118 73.9558 62.6392C74.3952 62.4665 74.7755 62.1707 75.0509 61.7873C75.3263 61.4039 75.4851 60.9491 75.5084 60.4776C76.0996 60.4219 76.6487 60.147 77.0474 59.707C77.4462 59.2669 77.6659 58.6936 77.6633 58.0997C77.6633 57.8768 77.589 57.6539 77.589 57.5052C78.0069 57.2999 78.3599 56.983 78.6091 56.5896C78.8582 56.1962 78.9938 55.7416 79.0009 55.276C79.0254 54.7095 78.8402 54.1539 78.4807 53.7155C78.8265 53.4905 79.11 53.1818 79.3048 52.8181C79.4997 52.4544 79.5996 52.0475 79.5953 51.6349Z" fill="#F24052"/>
<path d="M73.725 56.1677C73.725 56.1677 76.2515 53.6412 76.6231 56.6135C76.9946 59.5859 73.8736 61.3693 73.2792 60.3289C72.6847 59.2886 73.725 56.1677 73.725 56.1677Z" fill="#FF8B66"/>
<path d="M56.1139 56.3163C56.1139 56.3163 53.5875 53.8641 53.2159 56.7621C52.8444 59.6602 55.9653 61.5922 56.5598 60.4776C57.1543 59.3629 56.1139 56.3163 56.1139 56.3163Z" fill="#FF8B66"/>
<path d="M65.1795 68.5028C70.7526 68.5028 73.9479 64.8617 73.9479 53.8641C73.9479 48.2167 71.0499 44.7985 64.808 44.7985C58.5661 44.7985 55.891 48.2167 55.891 53.8641C55.891 65.6791 59.3835 68.5028 65.1795 68.5028Z" fill="#FF8B66"/>
<path d="M57.7487 57.8025C57.6001 58.3969 58.1203 58.9171 58.8634 59.0657C59.6065 59.2143 60.2009 58.8428 60.2752 58.2483C60.2853 58.0921 60.2644 57.9355 60.2138 57.7874C60.1632 57.6392 60.0838 57.5026 59.9803 57.3852C59.8767 57.2678 59.751 57.1721 59.6103 57.1034C59.4697 57.0348 59.3168 56.9945 59.1606 56.9851C58.8666 56.9324 58.5635 56.9857 58.305 57.1353C58.0466 57.2849 57.8495 57.5213 57.7487 57.8025Z" fill="#DB614D"/>
<path d="M69.2665 58.0997C69.2839 58.2541 69.3333 58.4031 69.4117 58.5373C69.49 58.6714 69.5956 58.7877 69.7215 58.8787C69.8475 58.9696 69.991 59.0333 70.143 59.0655C70.295 59.0977 70.452 59.0978 70.604 59.0657C71.3471 58.9914 71.8673 58.5456 71.8673 57.9511C71.796 57.6423 71.6113 57.3717 71.3498 57.1927C71.0882 57.0138 70.769 56.9397 70.4554 56.9851C69.7867 57.0594 69.1922 57.5796 69.2665 58.0997Z" fill="#DB614D"/>
<path d="M60.2009 51.9321H60.4238C61.0897 51.5216 61.8806 51.3635 62.6531 51.4863C62.8017 51.5606 62.9503 51.412 62.9503 51.2634C62.9503 51.1147 62.9503 50.9661 62.7274 50.9661C61.8021 50.8089 60.8512 50.9938 60.0523 51.4863C59.978 51.5606 59.9037 51.7835 60.0523 51.8578C60.0668 51.8836 60.0888 51.9044 60.1152 51.9177C60.1417 51.9309 60.1716 51.936 60.2009 51.9321Z" fill="#F24052"/>
<path d="M70.9013 51.9321H71.1242C71.1985 51.7835 71.1985 51.6349 71.0499 51.5606C70.2738 51.0097 69.3189 50.7709 68.3748 50.8918C68.3035 50.9227 68.2436 50.9751 68.2036 51.0417C68.1636 51.1084 68.1455 51.1859 68.1519 51.2634C68.1519 51.412 68.3005 51.4863 68.4491 51.4863C69.2316 51.3633 70.0311 51.5499 70.6784 52.0064L70.9013 51.9321Z" fill="#F24052"/>
<path d="M60.7953 55.0531C60.7953 55.7962 61.0926 56.3163 61.4641 56.3163C61.8357 56.3163 62.2072 55.7962 62.2072 55.0531C62.2072 54.31 61.8357 53.8641 61.4641 53.8641C61.0926 53.8641 60.7953 54.3843 60.7953 55.0531Z" fill="#1A4850"/>
<path d="M68.2262 55.0531C68.2262 55.7962 68.5977 56.3163 68.9693 56.3163C69.3408 56.3163 69.638 55.7962 69.638 55.0531C69.638 54.31 69.3408 53.8641 68.9693 53.8641C68.5977 53.8641 68.2262 54.3843 68.2262 55.0531Z" fill="#1A4850"/>
<path d="M71.4214 47.4736L59.012 46.5819C59.012 46.5819 55.891 49.8515 56.1139 57.8768C56.1139 57.8768 51.061 43.3867 65.6997 43.3867C80.3384 43.3867 73.725 57.5052 73.725 57.5052C73.725 57.5052 74.1708 50.1487 71.4214 47.4736Z" fill="#F24052"/>
<path d="M64.808 58.8428L65.2539 58.3969L64.1392 57.2823C65.1795 55.7962 65.1795 52.3037 65.1795 52.0807H64.5851C64.5851 52.1551 64.5851 55.9448 63.5448 57.1337L63.3218 57.3566L64.808 58.8428Z" fill="#DB614D"/>
<path d="M68.5234 60.6262C68.5234 60.6262 63.0246 60.9234 60.2752 60.1803C60.1976 60.713 60.2391 61.2562 60.3966 61.7709C60.5541 62.2856 60.8238 62.759 61.1863 63.1569C61.5487 63.5549 61.9949 63.8676 62.4926 64.0724C62.9904 64.2772 63.5274 64.3692 64.0649 64.3416C68.5234 64.5645 68.5234 60.6262 68.5234 60.6262Z" fill="#1A4850"/>
<path d="M23.9385 19.4594C23.9385 19.4594 19.7772 19.6824 19.8515 21.0199C19.9258 22.3575 19.8515 23.9179 23.344 23.7693C26.8365 23.6207 26.8365 22.2088 26.8365 20.8713C26.8365 19.5337 25.1274 19.3851 23.9385 19.4594Z" fill="#FFB878"/>
<path d="M111.102 20.2025C111.102 20.2025 106.941 20.2025 106.866 21.5401C106.792 22.8776 106.718 24.4381 110.21 24.4381C113.703 24.4381 113.777 23.1005 113.926 21.8373C114.074 20.5741 112.217 20.2025 111.102 20.2025Z" fill="#FFB878"/>
<path d="M17.3994 11.1369C18.04 12.2021 18.587 13.321 19.0342 14.4808C19.4057 16.71 19.6286 17.899 20.446 18.9393C21.2634 19.9796 20.8175 21.763 20.8175 21.763C20.8175 21.763 23.7899 23.2492 26.3164 21.3915C26.2013 20.6279 26.2013 19.8514 26.3164 19.0879C26.8365 18.1219 28.5456 17.5274 29.0658 15.5211C29.6232 13.9816 30.399 12.5301 31.3693 11.2112C31.3693 11.2112 30.8492 10.1709 29.9575 10.7654C29.0658 11.3598 28.5456 13.0689 28.0254 13.2176H27.7282C27.549 13.2583 27.3631 13.2594 27.1834 13.2209C27.0038 13.1824 26.8347 13.1052 26.6879 12.9946C25.8705 12.0286 25.6476 9.27922 25.7219 8.01598C25.7962 6.75274 25.6476 3.92902 24.6073 4.30057C23.567 4.67211 24.533 5.71242 23.7156 9.50214H23.344C23.2697 9.72506 22.5266 7.12428 22.378 4.74641C22.2294 2.36855 21.1148 3.63179 20.8919 4.22625C20.6689 4.82072 21.0405 6.38119 21.1148 7.57012C21.1165 8.29093 21.1662 9.01083 21.2634 9.72506L20.8175 10.0223C19.1085 7.12427 19.7029 5.93534 18.7369 5.86104C17.7709 5.78673 18.0681 8.31321 18.5883 9.20491C18.8658 9.87971 19.0894 10.5754 19.2571 11.2855C17.548 9.27921 17.6966 8.31321 16.9535 8.38752C16.2104 8.46183 16.8049 10.4681 17.3994 11.1369Z" fill="#FF8B66"/>
<path d="M24.8302 15.744C25.3503 14.1093 27.431 13.3662 27.7282 13.2919C27.549 13.3326 27.3631 13.3338 27.1834 13.2953C27.0038 13.2568 26.8347 13.1795 26.6879 13.0689C26.1399 13.2684 25.6671 13.6327 25.3345 14.1117C25.0019 14.5907 24.8257 15.1609 24.8302 15.744Z" fill="#EF6E4B"/>
<path d="M116.304 11.7314C115.669 12.7629 115.146 13.8589 114.743 15.0009C114.297 17.2302 114.074 18.4934 113.257 19.4594C112.44 20.4254 112.96 22.2831 112.96 22.2831C112.96 22.2831 109.913 23.8436 107.387 21.9116C107.387 21.9116 107.684 20.1282 107.387 19.6081C107.089 19.0879 105.232 18.1219 104.637 16.0413C104.092 14.5105 103.342 13.0607 102.408 11.7314C102.447 11.5981 102.52 11.4769 102.618 11.3794C102.717 11.2819 102.84 11.2112 102.974 11.174C103.107 11.1368 103.249 11.1343 103.384 11.1669C103.519 11.1994 103.643 11.2658 103.746 11.3598C104.637 12.0286 105.232 13.5891 105.678 13.812H106.049C106.398 13.8431 106.744 13.7364 107.015 13.5148H107.089C107.907 12.5488 108.055 9.72506 108.055 8.53613C108.055 7.34719 108.055 4.37487 109.096 4.74641C110.136 5.11795 109.17 6.15826 109.987 9.94798H110.433C110.508 10.2452 111.251 7.64443 111.399 5.19226C111.548 2.74009 112.588 4.15194 112.885 4.6721C113.183 5.19226 112.737 6.82704 112.662 8.09028C112.588 9.35352 112.514 9.72506 112.514 10.1709L112.96 10.4681C114.595 7.57012 114.074 6.38119 115.04 6.30688C116.006 6.23257 115.635 8.68474 115.115 9.65075C114.821 10.2874 114.621 10.9632 114.52 11.6571C116.229 9.72506 116.006 8.68474 116.824 8.83336C117.641 8.98198 116.898 11.0626 116.304 11.7314Z" fill="#FF8B66"/>
<path d="M108.947 16.2642C108.353 14.7037 106.272 13.9606 106.049 13.8863C106.398 13.9174 106.744 13.8107 107.015 13.5891C107.565 13.7942 108.043 14.1578 108.386 14.6339C108.73 15.11 108.925 15.6773 108.947 16.2642Z" fill="#EF6E4B"/>
<path d="M79.2981 141.325C78.778 143.034 78.4064 144.074 78.4064 144.074C78.4064 144.074 38.8745 138.947 34.1931 128.247L34.416 127.429C36.8682 131.591 67.1859 141.696 79.2981 141.325Z" fill="#F2A668"/>
<path d="M223.828 247.883H243.073C244.411 240.229 242.256 232.575 242.256 232.575L233.488 231.015C232.67 235.845 231.704 237.777 230.367 238.743C229.401 239.486 228.212 239.709 226.8 240.229C226.128 240.431 225.511 240.783 224.996 241.26C224.48 241.736 224.081 242.324 223.828 242.979C222.936 245.208 223.828 247.883 223.828 247.883Z" fill="#0E3944"/>
<path d="M223.828 242.979C228.583 243.573 238.987 244.539 238.318 241.864C237.649 239.189 233.413 238.892 230.367 238.743C229.401 239.486 228.212 239.709 226.8 240.229C226.128 240.431 225.511 240.783 224.996 241.26C224.48 241.736 224.081 242.324 223.828 242.979Z" fill="#205260"/>
<path d="M288.253 247.883H307.499C307.897 246.687 308.024 245.418 307.87 244.167C307.776 243.261 307.415 242.403 306.833 241.702C306.251 241.001 305.474 240.489 304.601 240.229C302.892 239.635 301.628 239.412 300.588 238.446C299.548 237.48 298.582 235.399 297.913 231.015L289.07 232.575C289.07 232.575 286.915 240.229 288.253 247.883Z" fill="#0E3944"/>
<path d="M307.87 244.167C307.776 243.261 307.415 242.403 306.833 241.702C306.251 241.001 305.474 240.489 304.601 240.229C302.892 239.635 301.628 239.412 300.588 238.446C298.136 239.189 294.718 240.526 293.677 242.681C292.637 244.836 303.486 245.059 307.87 244.167Z" fill="#205260"/>
<path d="M299.25 232.352C299.25 232.352 297.764 237.108 288.179 233.839C288.179 233.839 281.119 180.337 280.005 179.148C278.89 177.959 267.595 143.108 267.595 143.108H264.028C264.028 143.108 252.733 178.033 251.693 179.148C250.653 180.262 243.445 233.839 243.445 233.839C233.859 237.108 232.373 232.352 232.373 232.352L236.98 174.689L246.64 115.243L265.812 117.398L285.058 115.243L287.584 130.773V131.368L294.569 174.689L299.25 232.352Z" fill="#8B383E"/>
<path d="M287.658 131.368C285.71 130.86 283.91 129.893 282.411 128.549C280.912 127.205 279.755 125.521 279.039 123.64L279.559 123.491C280.234 125.248 281.312 126.821 282.706 128.086C284.099 129.351 285.77 130.271 287.584 130.773L287.658 131.368Z" fill="#662C33"/>
<path d="M267.149 137.832C266.895 138.082 266.593 138.277 266.26 138.404C265.928 138.532 265.573 138.591 265.217 138.576C265.217 140.062 265.217 141.548 265.143 143.108H264.548C264.745 138.869 264.621 134.622 264.177 130.402H264.697C264.697 130.476 265.143 133.82 265.217 138.13C265.509 138.13 265.798 138.07 266.066 137.955C266.334 137.84 266.576 137.672 266.778 137.461C268.561 135.529 267.521 129.956 267.521 129.881H268.041C268.115 129.956 269.156 135.678 267.149 137.832Z" fill="#662C33"/>
<path d="M318.942 10.6911C317.833 11.174 316.764 11.7455 315.747 12.4002C314.038 13.8863 313.146 14.7037 311.883 15.0753C310.62 15.4468 310.545 17.6761 310.545 17.6761C310.545 17.6761 305.864 19.6824 304.972 16.6357C304.972 16.6357 306.978 12.2515 307.127 11.6571C307.276 11.0626 306.31 9.1306 307.053 7.12428C307.538 5.5854 307.789 3.98214 307.796 2.36855C307.796 2.36855 308.836 1.77409 309.208 2.81441C309.579 3.85472 308.985 5.56381 309.282 5.93535L309.431 6.23258H309.505C309.616 6.35744 309.754 6.45566 309.908 6.51997C310.063 6.58429 310.23 6.61305 310.397 6.60413H310.471C311.734 6.30689 313.518 4.22626 314.261 3.18595C315.004 2.14563 316.787 -0.0836177 317.382 0.882389C317.976 1.8484 316.639 2.07132 315.004 5.56381L315.227 5.86104C315.152 6.08397 317.307 4.52349 318.868 2.66579C320.428 0.808082 320.503 2.51717 320.354 3.11164C320.205 3.7061 318.942 4.82072 318.199 5.71242L316.787 7.2729L316.936 7.79306C320.057 6.45551 320.354 5.19227 321.097 5.71242C321.84 6.23258 320.205 8.01598 319.239 8.46183C318.58 8.78227 317.977 9.20905 317.456 9.72507C320.057 9.1306 320.503 8.23891 321.023 8.83337C321.543 9.42784 319.834 10.5425 318.942 10.6911Z" fill="#FF8B66"/>
<path d="M310.322 9.87368C310.842 8.2389 309.654 6.4555 309.505 6.23257C309.616 6.35743 309.754 6.45565 309.908 6.51996C310.063 6.58428 310.23 6.61304 310.397 6.60412C310.725 7.08944 310.894 7.66491 310.881 8.25075C310.868 8.83659 310.672 9.40378 310.322 9.87368Z" fill="#EF6E4B"/>
<path d="M174.561 38.1851C175.784 38.1863 177.004 38.3108 178.202 38.5567C180.283 39.374 181.472 39.8199 182.735 39.6713C183.998 39.5227 184.89 41.6033 184.89 41.6033C184.89 41.6033 190.017 41.7519 189.72 38.5567C189.72 38.5567 186.228 35.2128 185.93 34.7669C185.633 34.3211 185.782 32.0918 184.296 30.5314C183.279 29.2715 182.453 27.8695 181.843 26.3701C181.843 26.3701 180.655 26.2215 180.729 27.2618C180.803 28.3021 181.918 29.714 181.843 30.2341C181.769 30.7543 181.769 30.4571 181.695 30.5314C181.649 30.6987 181.565 30.8531 181.448 30.9821C181.332 31.1111 181.188 31.2112 181.026 31.2744H180.952C179.689 31.4974 177.236 30.1598 176.196 29.491C175.156 28.8223 172.629 27.4104 172.406 28.525C172.183 29.6397 173.521 29.2681 176.419 31.9432L176.196 32.3148C176.419 32.5377 173.818 31.7946 171.663 30.68C169.508 29.5654 170.103 31.2001 170.474 31.646C170.846 32.0918 172.406 32.6863 173.447 33.2808L175.379 34.2468V34.7669C172.035 34.6926 171.366 33.578 170.772 34.3954C170.177 35.2128 172.481 36.1045 173.595 36.1788C174.303 36.2891 174.999 36.4632 175.676 36.6989C173.075 37.1448 172.258 36.476 171.96 37.2191C171.663 37.9622 173.67 38.3337 174.561 38.1851Z" fill="#FF8B66"/>
<path d="M182.289 34.2468C181.175 32.9835 181.695 30.8286 181.695 30.5313C181.649 30.6987 181.565 30.8531 181.448 30.9821C181.332 31.1111 181.188 31.2112 181.026 31.2744C180.907 31.8396 180.965 32.4275 181.191 32.959C181.417 33.4905 181.8 33.9399 182.289 34.2468Z" fill="#EF6E4B"/>
<path d="M311.809 18.642C311.809 18.642 311.363 20.4998 310.471 23.3235C310.174 24.5124 309.802 25.8499 309.356 27.2618L307.127 34.2468C306.681 35.5843 306.235 36.9219 305.715 38.1851C304.754 41.0162 303.587 43.773 302.223 46.4333L301.777 47.2507C301.23 48.1205 300.609 48.941 299.919 49.7029C298.656 51.1147 296.947 52.8238 295.015 54.6072C293.083 56.3906 293.009 56.4649 291.894 57.3566C290.779 58.2483 288.327 60.4033 286.544 61.8894L283.2 64.5645C277.627 69.023 273.02 72.4412 273.02 72.4412L264.697 55.4246C267.075 53.8641 271.459 51.189 276.066 48.4396L279.262 46.4333L284.092 43.6096L287.435 41.6033L290.854 39.597L292.34 38.7053L293.38 36.7733C294.123 35.3614 295.163 33.2065 296.427 30.8286L298.136 27.559L301.034 22.1345C301.628 21.0199 302.297 19.9053 302.817 18.865C304.452 15.967 305.79 13.6634 306.458 12.6974C307.748 13.2083 308.903 14.0108 309.831 15.0421C310.759 16.0734 311.436 17.3055 311.809 18.642Z" fill="#CFD8DC"/>
<path d="M286.544 61.8894L283.2 64.5645C282.409 58.619 279.934 53.0239 276.066 48.4396L279.262 46.4333C282.934 50.9013 285.436 56.213 286.544 61.8894Z" fill="#8BBDDB"/>
<path d="M295.015 54.6072C293.975 55.4989 293.009 56.4649 291.894 57.3566C289.962 50.0001 286.395 45.6902 284.092 43.6096L287.435 41.6033C290.941 45.2878 293.537 49.741 295.015 54.6072Z" fill="#8BBDDB"/>
<path d="M302.223 46.4333L301.777 47.2507C301.23 48.1205 300.609 48.941 299.919 49.7029C297.545 45.805 294.472 42.379 290.854 39.597L292.34 38.7053L293.38 36.7733C296.84 39.4843 299.827 42.7483 302.223 46.4333Z" fill="#8BBDDB"/>
<path d="M307.127 34.2468C306.681 35.5843 306.235 36.9219 305.715 38.1851C302.96 35.3313 299.836 32.8573 296.427 30.8286L298.136 27.559C301.36 29.4651 304.374 31.7068 307.127 34.2468Z" fill="#8BBDDB"/>
<path d="M310.471 23.3235C310.174 24.5124 309.802 25.8499 309.356 27.2618C306.884 25.1051 304.072 23.3726 301.034 22.1345C301.628 21.0199 302.297 19.9053 302.817 18.865C305.558 19.9987 308.133 21.4985 310.471 23.3235Z" fill="#8BBDDB"/>
<path d="M241.662 59.8831L240.175 78.6831L228.435 75.3392L224.571 74.1503L217.511 71.7724L213.87 70.4349C211.439 69.5505 209.057 68.5335 206.737 67.3882C205.822 66.9517 204.951 66.4292 204.136 65.8278L203.467 65.2333C201.515 63.5216 199.701 61.6581 198.043 59.6602C197.225 58.6942 196.334 57.7282 195.516 56.6878C194.699 55.6475 192.172 52.6009 190.612 50.6689L188.308 47.6222C185.633 44.2041 183.85 41.6776 183.85 41.6776C183.998 37.2191 187.268 36.0302 187.268 36.0302C189.719 37.7072 192.076 39.5181 194.327 41.4547L197.225 43.8325L202.13 47.9195L205.028 50.3716L208.52 53.344L209.858 54.4586L212.013 54.7558L216.768 55.5732L220.484 56.1677L225.611 56.9851L229.252 57.5795C234.305 58.3969 238.987 59.2886 241.662 59.8831Z" fill="#CFD8DC"/>
<path d="M228.435 75.3392L224.571 74.1503C223.982 68.41 224.333 62.6122 225.611 56.9851L229.252 57.5795C227.946 63.4065 227.669 69.4169 228.435 75.3392Z" fill="#8BBDDB"/>
<path d="M220.484 56.1677C218.75 61.1999 217.749 66.4553 217.511 71.7724L213.87 70.4349C214.146 65.3711 215.122 60.3698 216.768 55.5732L220.484 56.1677Z" fill="#8BBDDB"/>
<path d="M212.013 54.7558C209.825 58.7742 208.057 63.0073 206.737 67.3882C205.822 66.9517 204.951 66.4292 204.136 65.8278L203.467 65.2333C204.821 61.1378 206.511 57.1612 208.52 53.344L209.858 54.4586L212.013 54.7558Z" fill="#8BBDDB"/>
<path d="M205.028 50.3717C202.441 53.2646 200.104 56.372 198.043 59.6602C197.225 58.6942 196.334 57.7282 195.516 56.6879C197.539 53.6322 199.747 50.7039 202.13 47.9195L205.028 50.3717Z" fill="#8BBDDB"/>
<path d="M197.225 43.8325C194.857 45.9474 192.647 48.2322 190.612 50.6689L188.308 47.6222C190.164 45.4245 192.175 43.3633 194.327 41.4547L197.225 43.8325Z" fill="#8BBDDB"/>
<path d="M291.374 119.776C291.374 119.776 280.971 130.625 266.852 133.3C259.08 134.754 251.202 135.574 243.296 135.752C243.296 135.752 242.702 132.854 241.736 128.47C241.439 127.281 241.216 126.017 240.919 124.68C240.621 123.342 239.804 119.627 239.209 116.803C238.912 115.54 238.689 114.351 238.392 113.088C238.095 111.825 237.426 108.406 236.906 106.028C236.683 104.765 236.386 103.576 236.163 102.313C235.568 99.2665 234.974 96.2941 234.379 93.4704L233.711 89.6807C233.042 86.3368 232.522 83.2159 232.076 80.7637C231.63 78.3115 231.704 77.94 231.556 76.8997C231.407 75.8594 231.481 76.2309 231.481 75.9337C231.333 73.3329 231.184 70.955 231.184 68.8001V64.9361C231.258 60.8491 231.481 58.3226 231.481 58.3226C234.454 56.3163 254.666 62.8554 254.666 62.8554C254.666 62.8554 269.601 50.0001 271.979 50.8918C273.512 51.6631 274.799 52.8469 275.695 54.31C276.429 55.3842 277.099 56.5007 277.701 57.6539C278.871 60.0297 279.865 62.4886 280.673 65.0104C281.119 66.2488 281.565 67.5864 282.011 69.023C282.68 71.3266 283.274 73.7044 283.943 76.1566L284.835 79.9463L286.395 87.2285C286.618 88.5661 286.841 89.8293 287.138 91.0926L288.253 97.5574L288.922 101.57C289.367 104.394 289.739 107.069 290.111 109.447C290.482 111.825 290.482 112.196 290.631 113.385C291.151 117.323 291.374 119.776 291.374 119.776Z" fill="#CFD8DC"/>
<path d="M277.701 57.6539C273.168 62.261 265.217 69.023 256.077 70.8807C254.068 71.2508 252.027 71.425 249.984 71.4009C244.039 71.4009 237.203 70.212 231.184 68.8001V64.9361C239.209 66.8681 248.869 68.5029 255.334 67.2396C263.954 65.5305 271.682 58.5456 275.695 54.31C276.429 55.3842 277.099 56.5007 277.701 57.6539Z" fill="#8BBDDB"/>
<path d="M282.011 69.023C277.33 73.3329 265.812 81.4325 243.742 81.4325C239.844 81.4132 235.95 81.1899 232.076 80.7637C231.853 79.2776 231.704 77.94 231.556 76.8997C263.657 80.9123 277.552 68.4286 280.673 65.0104C281.119 66.2488 281.565 67.5864 282.011 69.023Z" fill="#8BBDDB"/>
<path d="M284.835 79.9463C275.918 84.9993 257.638 93.4704 236.088 93.4704H234.379L233.711 89.6807C256.077 90.3495 275.397 80.9867 283.943 76.1566L284.835 79.9463Z" fill="#8BBDDB"/>
<path d="M287.138 91.0926C279.336 95.3281 259.644 104.84 236.906 106.028C236.683 104.765 236.386 103.576 236.163 102.313C259.273 101.273 279.782 90.9439 286.395 87.2285C286.618 88.5661 286.841 89.8293 287.138 91.0926Z" fill="#8BBDDB"/>
<path d="M288.922 101.57C280.005 106.772 260.759 116.432 239.209 116.803C238.912 115.54 238.689 114.351 238.392 113.088C260.239 112.865 280.302 102.313 288.253 97.5574L288.922 101.57Z" fill="#8BBDDB"/>
<path d="M290.631 113.385C281.491 118.512 261.279 128.47 242.999 128.47H241.736C241.439 127.281 241.216 126.017 240.919 124.68C259.496 125.572 281.639 114.202 290.111 109.447C290.259 110.859 290.482 112.196 290.631 113.385Z" fill="#8BBDDB"/>
<path d="M257.415 55.276C257.415 55.276 256.82 60.329 258.678 61.8894C258.678 61.8894 257.712 65.4562 254.963 66.125C252.213 66.7938 249.91 63.5242 249.91 63.5242C249.91 63.5242 250.727 58.6199 248.721 57.3566L257.415 55.276Z" fill="#EF6E4B"/>
<path d="M259.867 44.6499C259.867 44.6499 261.873 41.306 257.118 36.0302C257.118 36.0302 254.888 30.9772 247.235 29.7883C239.581 28.5993 233.859 36.9962 233.859 41.6033C233.859 46.2104 236.609 41.6033 236.609 41.6033C236.609 41.6033 237.203 44.7985 238.095 46.2847C238.095 46.2847 237.798 50.8918 240.696 50.8918C243.594 50.8918 259.867 44.6499 259.867 44.6499Z" fill="#105E99"/>
<path d="M242.256 50.223C242.256 50.223 239.209 48.6626 239.804 51.412C240.398 54.1614 243.742 54.9045 243.965 53.7898C244.188 52.6752 242.256 50.223 242.256 50.223Z" fill="#FF8B66"/>
<path d="M258.307 44.9472C258.307 44.9472 259.867 41.9005 260.982 44.5013C262.096 47.1021 260.016 49.7029 259.124 48.8855C258.232 48.0681 258.307 44.9472 258.307 44.9472Z" fill="#FF8B66"/>
<path d="M253.774 58.7685C248.721 60.4776 244.708 58.0997 241.364 48.2167C239.655 43.0894 241.216 39.0025 246.937 37.1448C252.659 35.2871 256.003 37.5906 257.786 42.7179C261.353 53.344 259.05 57.0594 253.774 58.7685Z" fill="#FF8B66"/>
<path d="M257.266 46.8049C257.564 47.2507 257.266 47.9195 256.672 48.291C256.421 48.4426 256.123 48.4961 255.835 48.4413C255.547 48.3864 255.289 48.2271 255.111 47.9938C254.814 47.4736 255.111 46.8792 255.706 46.5076C255.957 46.356 256.255 46.3025 256.543 46.3574C256.831 46.4123 257.089 46.5716 257.266 46.8049Z" fill="#DB614D"/>
<path d="M246.937 50.5946C246.958 50.7411 246.95 50.8904 246.912 51.0336C246.875 51.1769 246.809 51.3112 246.719 51.4288C246.629 51.5464 246.517 51.6449 246.389 51.7185C246.26 51.7922 246.118 51.8396 245.971 51.8578C245.303 52.0064 244.634 51.7092 244.56 51.189C244.485 50.6689 244.783 50.1487 245.451 49.9258C245.738 49.827 246.051 49.8412 246.327 49.9655C246.603 50.0898 246.822 50.3148 246.937 50.5946Z" fill="#DB614D"/>
<path d="M253.179 42.4207H253.031C252.322 42.1222 251.528 42.0957 250.802 42.3464C250.653 42.4207 250.504 42.3464 250.504 42.1978C250.478 42.1284 250.479 42.0519 250.507 41.9832C250.534 41.9145 250.586 41.8585 250.653 41.8262C251.499 41.5298 252.426 41.5563 253.254 41.9005C253.402 41.9748 253.402 42.1977 253.402 42.2721L253.179 42.4207Z" fill="#FFB878"/>
<path d="M243.668 45.6159H243.445C243.296 45.5416 243.296 45.393 243.296 45.2444C243.755 44.4529 244.5 43.8676 245.377 43.6096C245.406 43.5981 245.437 43.5928 245.469 43.5941C245.5 43.5955 245.531 43.6034 245.559 43.6175C245.587 43.6315 245.612 43.6513 245.632 43.6755C245.651 43.6998 245.666 43.728 245.674 43.7582C245.7 43.8275 245.699 43.904 245.672 43.9728C245.644 44.0415 245.592 44.0975 245.526 44.1298C244.808 44.3443 244.197 44.822 243.817 45.4673C243.817 45.5067 243.801 45.5445 243.773 45.5724C243.745 45.6003 243.707 45.6159 243.668 45.6159Z" fill="#FFB878"/>
<path d="M253.699 45.2444C253.922 45.9132 253.774 46.5076 253.402 46.5819C253.031 46.6562 252.659 46.2847 252.436 45.6902C252.213 45.0958 252.288 44.427 252.659 44.3527C253.031 44.2784 253.477 44.6499 253.699 45.2444Z" fill="#1A4850"/>
<path d="M246.937 47.5479C247.086 48.1424 247.012 48.7369 246.64 48.8855C246.269 49.0341 245.823 48.5882 245.6 47.9938C245.377 47.3993 245.526 46.7305 245.897 46.5819C246.269 46.4333 246.715 46.8792 246.937 47.5479Z" fill="#1A4850"/>
<path d="M249.167 54.31C249.167 54.31 253.848 53.344 255.78 51.4863C255.78 51.4863 255.483 54.9787 252.956 55.4989C252.277 55.6707 251.562 55.6506 250.893 55.4407C250.224 55.2308 249.627 54.8394 249.167 54.31Z" fill="#1A4850"/>
<path d="M252.288 51.4863C251.9 51.5891 251.5 51.6391 251.099 51.6349V51.1147C251.619 51.0404 252.511 50.8918 252.585 50.5946C252.659 50.2974 252.585 50.3717 252.362 50.1487C252.139 49.9258 249.687 44.9472 249.613 44.7985L250.133 44.5756C250.133 44.5756 251.619 48.514 252.808 49.7772C252.955 49.9034 253.066 50.0657 253.132 50.2481C253.197 50.4305 253.213 50.6268 253.179 50.8175C252.965 51.1338 252.651 51.3693 252.288 51.4863Z" fill="#DB614D"/>
<path d="M245.451 34.8412C234.082 39.0768 240.918 49.7772 240.918 49.7772L242.553 51.2633C241.81 48.2167 242.33 46.5076 242.33 46.5076C241.598 45.1426 241.387 43.5582 241.736 42.0491C243.148 40.8602 246.64 38.5566 253.179 37.8879C254.177 38.8298 254.874 40.0444 255.186 41.3804C256.751 42.8554 258.014 44.6224 258.901 46.5819L259.05 43.9068C259.05 43.9068 256.449 30.7543 245.451 34.8412Z" fill="#FFB878"/>
<path d="M244.114 233.541L239.135 234.656C239.135 234.656 231.333 192.746 229.549 188.362C227.766 183.978 221.375 169.934 219.146 158.713C218.57 158.701 217.997 158.626 217.437 158.49L216.694 158.267L216.025 158.119C215.802 169.339 213.35 183.086 212.607 186.95C211.864 190.814 212.236 234.284 212.236 234.284L207.108 234.136C197.374 199.583 202.501 186.653 202.501 186.653C202.501 186.653 193.584 155.592 196.705 144.594C197.683 141.276 198.874 138.024 200.272 134.86L200.643 134.191C201.944 131.284 203.459 128.477 205.176 125.794L215.579 127.058L215.728 126.909H216.025V130.179H217.66L221.97 129.956H222.564L226.354 129.733C226.354 129.733 228.583 133.374 231.853 139.17L232.224 139.839L235.94 146.824C241.216 157.004 239.432 186.133 239.432 186.133C239.432 186.133 246.937 197.725 244.114 233.541Z" fill="#8BBDDB"/>
<path d="M208.594 126.983C208.594 127.058 205.845 133.448 200.272 134.86L200.643 134.191C205.622 132.631 208.074 126.835 208.074 126.76L208.594 126.983Z" fill="#6097B2"/>
<path d="M232.224 139.764C225.983 138.427 222.787 131.962 221.97 129.956L221.747 129.361L222.267 129.138C222.342 129.395 222.441 129.644 222.564 129.881C223.456 131.962 226.354 137.684 231.853 139.096L232.224 139.764Z" fill="#6097B2"/>
<path d="M217.437 158.49L216.694 158.267C214.899 154.721 213.599 150.946 212.83 147.047C210.824 138.427 215.282 129.213 215.356 129.138L215.802 129.361C215.802 129.436 211.418 138.501 213.35 146.898L213.573 147.938C213.647 148.161 213.647 148.31 213.722 148.533C214.546 151.992 215.794 155.336 217.437 158.49Z" fill="#6097B2"/>
<path d="M213.424 148.533H213.35V147.938C213.647 148.013 213.945 147.79 214.242 147.492C214.539 147.195 215.431 145.783 214.762 142.514C213.87 138.055 217.14 130.402 217.288 130.03L217.809 130.253C217.809 130.327 214.465 138.13 215.282 142.365C216.1 146.601 215.208 147.27 214.688 147.864C214.535 148.057 214.343 148.215 214.126 148.331C213.909 148.446 213.67 148.514 213.424 148.533Z" fill="#6097B2"/>
<path d="M213.573 86.4111C213.573 86.4111 215.208 83.3645 212.904 78.2372C210.601 73.11 211.047 58.9171 222.713 59.5116C222.713 59.5116 229.624 58.3226 233.042 62.8554C236.46 67.3882 239.358 83.3645 235.717 95.1795C232.076 106.995 208.892 103.874 213.573 86.4111Z" fill="#F24052"/>
<path d="M226.354 129.659C222.767 130.708 218.984 130.905 215.308 130.234C211.631 129.563 208.162 128.043 205.176 125.795C205.176 125.795 203.244 86.4855 206.885 83.8847C208.446 82.6957 211.641 83.6617 214.613 85.0736C217.278 86.3274 219.838 87.7935 222.267 89.4578C222.267 89.4578 229.029 88.4918 234.379 89.0862C237.798 89.4578 240.547 90.4981 240.696 92.7274C241.067 98.5234 226.354 129.659 226.354 129.659Z" fill="#FF8B66"/>
<path d="M234.677 89.1605C232.373 88.9376 231.927 90.721 229.624 91.5384C227.677 92.2665 225.66 92.7895 223.605 93.0989C222.564 93.1732 221.97 94.5107 221.97 94.5107C221.97 94.5107 221.598 92.7273 221.078 92.5787C220.558 92.4301 215.654 87.6001 214.613 85.0736C217.278 86.3274 219.838 87.7935 222.267 89.4578C222.267 89.4578 229.029 88.4918 234.379 89.0862L234.677 89.1605Z" fill="#EF6E4B"/>
<path d="M204.805 238.52C205.102 236.365 204.285 234.879 204.879 233.839C205.473 232.798 206.662 234.21 206.662 234.21C206.737 231.832 210.749 231.832 211.195 232.947C211.288 233.232 211.413 233.507 211.567 233.764C211.79 233.17 212.236 232.575 212.756 232.947C214.985 234.21 212.236 237.554 214.242 240.006C216.248 242.458 215.208 247.883 215.208 247.883H203.17C201.758 241.269 204.433 240.601 204.805 238.52Z" fill="#CFD8DC"/>
<path d="M212.235 237.703C212.235 237.703 209.337 236.216 205.622 238.223L206.365 236.811C207.198 236.348 208.122 236.074 209.073 236.01C210.024 235.946 210.977 236.092 211.864 236.439L212.235 237.703Z" fill="#ADBEC4"/>
<path d="M212.681 240.006C210.106 239.204 207.325 239.389 204.879 240.526L205.622 239.115C205.622 239.115 209.189 237.554 212.236 238.743L212.681 240.006Z" fill="#ADBEC4"/>
<path d="M246.343 238.52C246.046 236.365 246.789 234.879 246.269 233.839C245.749 232.798 244.485 234.21 244.485 234.21C244.411 231.832 240.324 231.832 239.953 232.947L239.581 233.764C239.358 233.17 238.912 232.575 238.318 232.947C236.163 234.21 238.838 237.554 236.906 240.006C234.974 242.458 235.94 247.883 235.94 247.883H247.978C249.39 241.269 246.64 240.601 246.343 238.52Z" fill="#CFD8DC"/>
<path d="M238.912 237.703C238.912 237.703 241.736 236.217 245.526 238.223L244.783 236.811C243.948 236.353 243.024 236.082 242.074 236.018C241.124 235.953 240.172 236.097 239.284 236.439L238.912 237.703Z" fill="#ADBEC4"/>
<path d="M238.392 240.006C240.992 239.206 243.796 239.391 246.269 240.526L245.526 239.115C245.526 239.115 241.959 237.554 238.912 238.743L238.392 240.006Z" fill="#ADBEC4"/>
<path d="M221.375 76.5281C221.375 76.5281 222.267 87.0056 219.369 88.4918C219.369 88.4918 221.524 92.4301 227.246 90.0522C227.246 90.0522 226.28 84.6277 230.144 78.2372C232.67 73.9273 221.375 76.5281 221.375 76.5281Z" fill="#EF6E4B"/>
<path d="M231.927 72.887C231.927 72.887 234.082 70.3605 234.602 73.1099C235.122 75.8594 232.373 77.7171 231.704 76.7511C231.036 75.785 231.927 72.887 231.927 72.887Z" fill="#FF8B66"/>
<path d="M215.505 74.2989C215.505 74.2989 212.979 72.144 212.904 74.8934C212.83 77.6428 215.802 79.1289 216.248 78.0886C216.694 77.0483 215.505 74.2989 215.505 74.2989Z" fill="#FF8B66"/>
<path d="M224.794 84.9993C229.995 84.6277 232.745 80.9866 231.927 70.7321C231.556 65.5305 228.583 62.4839 222.787 62.9297C216.991 63.3756 214.688 66.7938 215.134 72.0696C215.951 82.993 219.443 85.3708 224.794 84.9993Z" fill="#FF8B66"/>
<path d="M217.14 75.5621C217.14 75.7052 217.169 75.8469 217.226 75.9782C217.282 76.1095 217.366 76.2277 217.47 76.3253C217.575 76.423 217.699 76.498 217.834 76.5456C217.968 76.5933 218.112 76.6127 218.255 76.6024C218.391 76.6351 218.533 76.6396 218.672 76.6158C218.811 76.592 218.943 76.5403 219.061 76.4639C219.179 76.3875 219.28 76.288 219.359 76.1713C219.437 76.0546 219.491 75.9232 219.518 75.7851C219.518 75.642 219.489 75.5003 219.432 75.369C219.375 75.2377 219.292 75.1195 219.187 75.0219C219.083 74.9242 218.959 74.8492 218.824 74.8015C218.689 74.7539 218.546 74.7345 218.403 74.7447C218.266 74.7121 218.124 74.7076 217.986 74.7314C217.847 74.7552 217.715 74.8069 217.597 74.8833C217.479 74.9597 217.377 75.0592 217.299 75.1759C217.22 75.2926 217.166 75.424 217.14 75.5621Z" fill="#DB614D"/>
<path d="M227.84 75.042C227.874 75.1817 227.936 75.3129 228.024 75.4274C228.111 75.5418 228.22 75.6369 228.346 75.7067C228.472 75.7765 228.611 75.8195 228.754 75.833C228.897 75.8465 229.041 75.8302 229.178 75.7851C229.847 75.7108 230.367 75.1906 230.292 74.6705C230.206 74.3993 230.02 74.1713 229.771 74.0332C229.523 73.895 229.231 73.8572 228.955 73.9274C228.286 74.0017 227.766 74.5218 227.84 75.042Z" fill="#DB614D"/>
<path d="M218.998 70.0633C219.072 70.1376 219.221 70.0633 219.295 69.989C219.807 69.4635 220.495 69.1459 221.227 69.0973C221.306 69.0973 221.381 69.066 221.437 69.0102C221.493 68.9545 221.524 68.8789 221.524 68.8001C221.45 68.6515 221.375 68.5771 221.227 68.5771C220.332 68.613 219.483 68.9844 218.849 69.6175C218.775 69.7661 218.775 69.9147 218.923 69.989C219.072 70.0633 218.923 70.0633 218.998 70.0633Z" fill="#F24052"/>
<path d="M226.503 68.6515H226.651C227.385 68.5736 228.122 68.7579 228.732 69.1716C228.806 69.3202 229.029 69.2459 229.104 69.1716C229.136 69.1151 229.153 69.0511 229.153 68.9859C229.153 68.9206 229.136 68.8566 229.104 68.8001C228.758 68.5082 228.353 68.2967 227.916 68.181C227.479 68.0654 227.021 68.0484 226.577 68.1313C226.518 68.1313 226.461 68.1548 226.419 68.1966C226.378 68.2384 226.354 68.2951 226.354 68.3542C226.354 68.5772 226.428 68.6515 226.503 68.6515Z" fill="#F24052"/>
<path d="M219.741 72.8127C219.815 73.4815 220.112 73.9274 220.484 73.9274C220.855 73.9274 221.153 73.3329 221.078 72.7384C221.004 72.144 220.707 71.5495 220.335 71.5495C219.964 71.5495 219.741 72.144 219.741 72.8127Z" fill="#1A4850"/>
<path d="M226.949 72.2183C227.023 72.887 227.32 73.3329 227.692 73.3329C228.063 73.3329 228.286 72.7384 228.286 72.144C228.286 71.5495 227.915 70.955 227.543 70.955C227.171 70.955 226.949 71.5495 226.949 72.2183Z" fill="#1A4850"/>
<path d="M226.577 78.6088C226.577 78.6088 223.307 79.2775 221.598 78.5345C221.598 78.5345 222.713 80.9123 224.496 80.5408C224.986 80.4385 225.439 80.2046 225.805 79.8641C226.172 79.5237 226.439 79.0896 226.577 78.6088Z" fill="#1A4850"/>
<path d="M221.524 72.3669C221.524 72.3669 220.93 70.8064 220.261 70.955C219.592 71.1037 219.295 72.5155 219.295 72.5155L218.329 72.0697H219.295C219.295 72.0697 219.666 70.5835 220.261 70.5835C220.855 70.5835 221.524 72.3669 221.524 72.3669Z" fill="#1A4850"/>
<path d="M226.577 72.144C226.577 72.144 226.949 70.5092 227.543 70.5835C228.138 70.6578 228.806 71.9953 228.806 71.9953L229.624 71.4009L228.732 71.6238C228.732 71.6238 228.138 70.2119 227.543 70.2863C226.949 70.3606 226.577 72.144 226.577 72.144Z" fill="#1A4850"/>
<path d="M223.753 76.1566H224.125V75.6364C223.967 75.6364 223.816 75.5738 223.705 75.4623C223.593 75.3508 223.53 75.1996 223.53 75.042C223.525 74.9151 223.548 74.7885 223.6 74.6725C223.652 74.5564 223.73 74.4539 223.828 74.3732C223.902 74.2989 224.051 74.3732 224.125 74.5218L224.571 74.2246C224.477 74.0607 224.33 73.9342 224.154 73.8664C223.978 73.7987 223.784 73.794 223.605 73.853C223.391 73.985 223.216 74.1717 223.099 74.3938C222.981 74.6158 222.925 74.8653 222.936 75.1163C222.963 75.3483 223.053 75.5683 223.198 75.752C223.342 75.9356 223.534 76.0757 223.753 76.1566Z" fill="#DB614D"/>
<path d="M224.645 64.5645C224.645 64.5645 226.577 63.9701 227.394 66.8681C228.806 71.9953 229.772 80.2436 233.042 84.4048C235.494 87.3771 236.906 86.1139 236.906 86.1139C237.282 84.1573 237.154 82.1371 236.534 80.2436C235.568 77.3455 236.832 66.7195 233.042 62.8554C229.252 58.9914 222.713 61.5179 222.713 61.5179C222.713 61.5179 219.518 59.5859 216.397 61.5179C213.276 63.4499 212.384 71.921 215.579 75.6364C215.579 75.6364 215.356 72.4412 216.768 71.2523C218.18 70.0633 218.923 63.004 224.645 64.5645Z" fill="#F24052"/>
<path d="M200.198 22.729C199.009 26.593 201.981 28.3021 199.752 30.9772C197.522 33.6523 196.334 31.2744 196.334 31.2744C195.141 29.069 193.612 27.0632 191.801 25.3298C190.612 24.1409 191.504 24.1409 191.504 24.1409L191.132 23.8436C190.24 23.1748 189.423 22.8033 190.315 22.5061C191.206 22.2088 193.881 24.0665 193.881 24.0665C190.76 20.5741 189.572 20.8713 190.389 20.5741C191.206 20.2768 194.699 22.6547 194.847 22.729C193.287 20.3511 191.949 19.5337 192.841 19.4594C193.733 19.3851 196.928 23.2492 198.117 24.7353L198.563 25.2555C199.306 22.0602 200.198 22.729 200.198 22.729Z" fill="#FF8B66"/>
<path d="M198.117 24.7353L198.563 25.2555C198.257 25.6213 198.05 26.0584 197.959 26.5261C197.868 26.9939 197.897 27.477 198.043 27.9306C197.656 27.4839 197.449 26.9093 197.463 26.3186C197.477 25.7279 197.71 25.1635 198.117 24.7353Z" fill="#EF6E4B"/>
<path d="M194.179 26.0729C193.881 25.8499 192.247 24.2895 191.504 24.1408L191.132 23.8436C191.801 23.3234 193.881 25.7013 194.179 26.0729Z" fill="#EF6E4B"/>
<path d="M199.752 30.9772C199.752 30.9772 199.306 56.4649 198.043 61.5179C198.043 61.5179 202.65 77.4942 209.56 83.2902C209.56 83.2902 210.675 87.6001 204.656 96.1455C204.656 96.1455 192.99 75.2649 191.132 63.3756L196.334 31.2744L199.752 30.9772Z" fill="#FF8B66"/>
<path d="M215.059 85.2965C215.654 87.3771 216.025 94.808 223.01 98.5977C229.995 102.387 237.575 96.8143 239.655 90.721C239.655 90.721 240.473 89.4578 243.296 92.5787C243.296 92.5787 257.861 99.7123 259.793 103.353C261.725 106.995 260.536 121.113 254.666 121.336C248.795 121.559 241.736 115.02 239.878 119.33C238.021 123.64 227.172 138.798 204.656 126.538C204.656 126.538 201.832 123.045 201.832 119.85C201.832 116.655 200.421 95.8483 200.421 95.8483C200.421 95.8483 192.098 93.4704 194.179 73.853C194.179 73.853 199.9 77.0483 199.752 66.5709C199.752 66.5709 204.433 64.4159 205.994 73.1843C207.034 79.0546 212.904 83.3645 212.904 83.3645C212.904 83.3645 214.168 82.027 215.059 85.2965Z" fill="#105E99"/>
<path d="M263.062 110.636C268.041 108.555 278.964 99.5637 282.903 94.2878L280.525 92.1329C280.525 92.1329 267.669 100.901 262.765 102.462C257.861 104.022 255.186 106.846 255.78 110.338C256.375 113.831 262.022 111.081 263.062 110.636Z" fill="#FF8B66"/>
<path d="M286.99 86.9313C284.537 90.2009 281.416 88.789 280.525 92.1329C280.005 94.2135 282.308 95.0309 282.308 95.0309C284.808 94.7626 287.333 94.8376 289.813 95.2538C291.448 95.5511 290.928 94.808 290.928 94.808L291.374 94.9566C292.488 95.3281 293.231 95.6997 292.934 94.8823C292.637 94.0649 289.59 92.8016 289.59 92.8016C294.272 93.3218 294.718 94.5107 294.495 93.619C294.272 92.7273 290.259 91.3898 290.11 91.3155C293.008 91.1669 294.42 91.7613 293.975 91.0183C293.529 90.2752 288.476 89.9036 286.618 89.8293H285.949C288.03 87.3028 286.99 86.9313 286.99 86.9313Z" fill="#FF8B66"/>
<path d="M286.618 89.8293H285.949C285.835 90.3055 285.596 90.7425 285.256 91.0952C284.917 91.448 284.489 91.7036 284.017 91.8356C284.622 91.8822 285.223 91.7029 285.703 91.3323C286.184 90.9617 286.51 90.4262 286.618 89.8293Z" fill="#EF6E4B"/>
<path d="M287.733 93.7676C288.179 93.8419 290.408 94.2878 290.928 94.808L291.374 94.9566C291.448 94.0649 288.253 93.8419 287.733 93.7676Z" fill="#EF6E4B"/>
<path d="M146.919 144.594C148.94 137.732 152.133 131.271 156.356 125.497L165.793 127.058V126.909L166.536 127.058H166.685L176.419 129.064C179.461 135.068 181.805 141.401 183.404 147.938C186.228 159.01 177.905 186.95 177.905 186.95C177.905 186.95 182.587 200.028 171.663 234.21H166.536C166.536 234.21 168.468 191.632 167.725 186.95C166.982 182.269 166.239 167.927 166.685 156.558C166.071 156.657 165.447 156.682 164.827 156.632C164.827 168.076 163.489 182.938 162.746 186.95C162.003 190.963 162.3 234.284 162.3 234.284L157.173 234.136C147.439 199.583 152.566 186.653 152.566 186.653C152.566 186.653 143.723 155.592 146.919 144.594Z" fill="#FF8B66"/>
<path d="M190.909 92.7273C190.538 86.9313 172.481 89.4578 172.481 89.4578C172.481 89.4578 160.666 81.2839 157.099 83.8846C155.761 84.7763 155.167 90.3495 154.944 97.1115C153.606 99.4894 152.417 103.13 154.87 106.474C154.87 116.357 155.315 125.794 155.315 125.794C158.301 128.043 161.77 129.563 165.447 130.234C169.124 130.905 172.906 130.708 176.493 129.659C176.493 129.659 180.877 120.519 184.741 111.156C185.806 110.254 186.633 109.105 187.151 107.81C187.669 106.515 187.863 105.112 187.714 103.725C189.646 98.7463 190.983 94.5107 190.909 92.7273Z" fill="#0E3944"/>
<path d="M188.605 63.1527C183.33 54.1614 170.103 55.276 165.496 61.1463C159.997 68.2056 162.969 84.702 162.969 84.702C162.969 84.702 175.602 74.1503 183.181 88.5661C183.181 88.5661 194.476 73.1843 188.605 63.1527Z" fill="#FFB878"/>
<path d="M154.944 238.52C155.241 236.365 154.498 234.879 155.018 233.839C155.538 232.798 156.802 234.21 156.802 234.21C156.876 231.832 160.963 231.832 161.334 232.947L161.706 233.764C162.003 233.17 162.375 232.575 162.969 232.947C165.124 234.21 162.449 237.554 164.381 240.006C166.313 242.458 165.347 247.883 165.347 247.883H153.309C151.897 241.269 154.647 240.601 154.944 238.52Z" fill="#0E3944"/>
<path d="M162.375 237.703C162.375 237.703 159.551 236.217 155.761 238.223L156.504 236.811C157.352 236.351 158.288 236.08 159.25 236.016C160.212 235.951 161.177 236.096 162.077 236.439L162.375 237.703Z" fill="#205260"/>
<path d="M162.895 240.006C162.895 240.006 158.808 238.594 155.092 240.526L155.761 239.115C155.761 239.115 159.402 237.554 162.375 238.743L162.895 240.006Z" fill="#205260"/>
<path d="M174.19 238.52C173.893 236.365 174.71 234.879 174.115 233.839C173.521 232.798 172.332 234.21 172.332 234.21C172.258 231.832 168.245 231.832 167.799 232.947C167.706 233.232 167.582 233.507 167.428 233.764C167.205 233.17 166.759 232.575 166.239 232.947C164.084 234.21 166.759 237.554 164.753 240.006C162.746 242.458 163.787 247.883 163.787 247.883H175.825C177.236 241.269 174.561 240.601 174.19 238.52Z" fill="#0E3944"/>
<path d="M166.759 237.703C166.759 237.703 169.657 236.216 173.372 238.223L172.629 236.811C171.797 236.348 170.872 236.074 169.921 236.01C168.971 235.946 168.018 236.092 167.13 236.439L166.759 237.703Z" fill="#205260"/>
<path d="M166.313 240.006C168.888 239.204 171.67 239.389 174.115 240.526L173.372 239.115C173.372 239.115 169.806 237.554 166.759 238.743L166.313 240.006Z" fill="#205260"/>
<path d="M171.589 76.5281C171.814 80.6223 171.102 84.7139 169.508 88.4918C169.508 88.4918 171.663 92.4301 177.459 90.0522C177.459 90.0522 176.493 84.6277 180.283 78.2372C182.884 73.9273 171.589 76.5281 171.589 76.5281Z" fill="#EF6E4B"/>
<path d="M184.37 73.5558C184.37 73.5558 187.119 71.6238 186.896 74.3732C186.674 77.1226 183.553 78.3116 183.181 77.1969C182.809 76.0823 184.37 73.5558 184.37 73.5558Z" fill="#FF8B66"/>
<path d="M168.096 70.6578C168.096 70.6578 166.239 67.9084 165.421 70.5835C164.604 73.2586 167.13 75.4135 167.874 74.5218C168.617 73.6301 168.096 70.6578 168.096 70.6578Z" fill="#FF8B66"/>
<path d="M174.413 83.3645C179.54 84.3305 183.032 81.5068 184.89 71.4752C185.856 66.2736 183.85 62.6325 178.054 61.5179C172.258 60.4032 169.285 63.227 168.319 68.3542C166.313 79.2032 169.062 82.3985 174.413 83.3645Z" fill="#FF8B66"/>
<path d="M169.36 72.2926C169.311 72.5767 169.366 72.8691 169.517 73.1151C169.667 73.3612 169.902 73.5442 170.177 73.6301C170.446 73.7396 170.745 73.7471 171.019 73.6513C171.292 73.5555 171.522 73.363 171.663 73.11C171.812 72.6641 171.44 72.0697 170.846 71.7724C170.577 71.663 170.278 71.6554 170.004 71.7512C169.731 71.847 169.501 72.0396 169.36 72.2926Z" fill="#DB614D"/>
<path d="M179.911 74.5218C179.901 74.6646 179.921 74.8079 179.968 74.9428C180.016 75.0777 180.091 75.2013 180.189 75.306C180.286 75.4106 180.404 75.4939 180.536 75.5508C180.667 75.6077 180.809 75.6368 180.952 75.6364C181.237 75.7037 181.538 75.6556 181.789 75.5026C182.039 75.3496 182.219 75.1039 182.289 74.8191C182.364 74.2989 181.843 73.7787 181.175 73.7044C180.9 73.6583 180.618 73.7165 180.384 73.8678C180.151 74.0191 179.982 74.2524 179.911 74.5218Z" fill="#DB614D"/>
<path d="M172.555 67.4626H172.926C173.556 67.1005 174.291 66.9691 175.007 67.091C175.156 67.1653 175.304 67.091 175.304 66.9424C175.33 66.8731 175.329 66.7966 175.302 66.7279C175.274 66.6592 175.222 66.6032 175.156 66.5709C174.287 66.408 173.389 66.5665 172.629 67.0167C172.594 67.03 172.562 67.0521 172.538 67.081C172.513 67.1099 172.496 67.1446 172.489 67.1818C172.481 67.219 172.483 67.2575 172.495 67.2936C172.507 67.3297 172.527 67.3623 172.555 67.3882V67.4626Z" fill="#FFB878"/>
<path d="M180.209 68.057H180.357C181.075 68.1868 181.729 68.553 182.215 69.0973C182.289 69.2459 182.438 69.2459 182.587 69.1716C182.64 69.128 182.677 69.067 182.691 68.9992C182.704 68.9314 182.694 68.861 182.661 68.8001C182.1 68.1174 181.305 67.6673 180.432 67.5368C180.283 67.5368 180.134 67.6111 180.134 67.7598C180.119 67.8114 180.117 67.8663 180.13 67.9187C180.143 67.9711 180.17 68.0189 180.209 68.057Z" fill="#FFB878"/>
<path d="M172.629 70.2863C172.555 70.955 172.704 71.5495 173.075 71.6238C173.447 71.6981 173.818 71.1779 173.892 70.5835C173.967 69.989 173.818 69.3202 173.521 69.2459C173.224 69.1716 172.778 69.6918 172.629 70.2863Z" fill="#1A4850"/>
<path d="M179.614 71.6981C179.54 72.3669 179.689 72.9613 180.06 73.0357C180.432 73.11 180.803 72.5898 180.952 71.9953C181.1 71.4009 180.877 70.7321 180.506 70.6578C180.134 70.5835 179.763 71.1036 179.614 71.6981Z" fill="#1A4850"/>
<path d="M177.682 77.6428C177.682 77.6428 174.413 77.4941 172.927 76.3795C172.927 76.3795 173.447 78.906 175.23 78.9803C175.726 79.0334 176.227 78.9338 176.665 78.6948C177.103 78.4558 177.458 78.0888 177.682 77.6428Z" fill="#1A4850"/>
<path d="M174.413 70.2863C174.413 70.2863 174.264 68.6515 173.595 68.6515C172.926 68.6515 172.258 69.9147 172.258 69.9147L171.44 69.2459L172.332 69.5432C172.332 69.5432 173.075 68.2056 173.67 68.3542C174.264 68.5029 174.413 70.2863 174.413 70.2863Z" fill="#1A4850"/>
<path d="M179.391 71.4752C179.391 71.4752 180.134 69.989 180.729 70.2119C181.323 70.4349 181.546 71.8467 181.546 71.8467L182.587 71.5495H181.621C181.621 71.5495 181.398 70.0633 180.803 69.9147C180.209 69.7661 179.391 71.4752 179.391 71.4752Z" fill="#1A4850"/>
<path d="M175.602 74.5218C175.676 74.6704 175.824 74.6704 175.973 74.7448L176.196 74.2246C175.75 74.076 175.676 73.7787 175.75 73.5558C175.824 73.3329 176.047 72.9614 176.196 72.9614C176.345 72.9614 176.419 73.0357 176.493 73.1843L177.013 73.0357C176.79 72.4412 176.345 72.3669 176.122 72.4412C175.899 72.5155 175.304 72.887 175.156 73.4072C175.124 73.6158 175.149 73.829 175.228 74.0249C175.306 74.2208 175.435 74.3923 175.602 74.5218Z" fill="#DB614D"/>
<path d="M167.799 72.4412C167.799 72.4412 165.644 66.1993 169.508 61.072C173.372 55.9448 183.85 59.8088 185.782 63.7471C187.714 67.6855 183.924 75.5621 183.924 75.5621C183.924 75.5621 186.822 65.0847 181.026 63.3013C181.026 63.3013 180.283 65.9764 175.75 67.8341C171.217 69.6918 168.691 69.3945 168.691 69.3945L167.799 72.4412Z" fill="#FFB878"/>
<path d="M186.228 89.3835C186.228 89.3835 192.767 89.4578 208.966 105.731C211.195 107.961 208.669 115.02 201.981 110.636C195.293 106.251 189.646 100.901 188.16 102.759C188.16 102.759 184.296 93.4704 186.228 89.3835Z" fill="#EF6E4B"/>
<path d="M209.932 104.765C209.858 99.4151 205.622 85.8167 202.278 80.2436L199.38 81.5811C199.38 81.5811 202.575 96.8143 202.13 102.016C201.684 107.217 203.393 110.636 206.885 111.453C210.378 112.27 209.932 105.88 209.932 104.765Z" fill="#FF8B66"/>
<path d="M197.002 73.7044C199.083 77.1969 196.631 79.5748 199.38 81.5811C202.13 83.5874 202.724 81.061 202.724 81.061C203.395 78.6436 204.421 76.3395 205.771 74.2246C206.662 72.8127 205.771 72.9614 205.771 72.9614C205.771 72.9614 205.994 72.7384 206.068 72.6641C206.142 72.5898 207.48 71.2523 206.588 71.178C205.696 71.1037 203.393 73.4815 203.393 73.4815C205.622 69.3203 206.885 69.3946 205.994 69.2459C205.102 69.0973 202.278 72.3669 202.204 72.4412C203.17 69.7661 204.285 68.6515 203.393 68.7258C202.501 68.8001 200.272 73.4072 199.529 75.1163C199.4 75.325 199.3 75.5499 199.232 75.7851C197.671 72.8127 197.002 73.7044 197.002 73.7044Z" fill="#FF8B66"/>
<path d="M199.529 75.1163C199.4 75.325 199.3 75.5499 199.232 75.7851C199.604 76.0673 199.896 76.4422 200.079 76.8725C200.261 77.3027 200.328 77.7732 200.272 78.2372C200.544 77.7145 200.618 77.1115 200.482 76.5384C200.345 75.9653 200.007 75.4605 199.529 75.1163Z" fill="#EF6E4B"/>
<path d="M203.616 75.5621C203.839 75.1906 205.028 73.3329 205.771 72.9613C206.514 72.5898 205.994 72.7384 206.068 72.6641C206.142 72.5898 203.839 75.1163 203.616 75.5621Z" fill="#EF6E4B"/>
<path d="M159.328 83.3645C159.328 83.3645 152.789 82.0269 133.617 94.585C130.942 96.2941 131.983 103.725 139.488 100.901C146.993 98.0775 153.904 93.7676 155.018 95.9226C155.018 95.9226 160.294 87.7487 159.328 83.3645Z" fill="#EF6E4B"/>
<path d="M132.874 93.4704C133.989 88.1946 140.974 75.7851 145.358 71.0294L147.959 72.9614C147.959 72.9614 141.643 87.1542 141.048 92.3558C140.454 97.5574 138.076 100.53 134.509 100.604C130.942 100.678 132.651 94.5851 132.874 93.4704Z" fill="#FF8B66"/>
<path d="M151.897 65.6791C149.148 68.6515 151.08 71.4752 147.959 72.9613C146.027 73.853 144.764 71.7724 144.764 71.7724C144.6 69.258 144.074 66.7804 143.203 64.4159C142.609 62.8554 143.426 63.227 143.426 63.227L143.203 62.7811C142.683 61.8151 142.163 61.1463 143.055 61.295C143.946 61.4436 145.655 64.193 145.655 64.193C144.318 59.6602 143.055 59.4373 144.021 59.5116C144.987 59.5859 146.993 63.3013 146.993 63.3756C146.696 60.5519 145.804 59.2143 146.621 59.5116C147.439 59.8088 148.702 64.7874 149.148 66.5708C149.182 66.797 149.231 67.0204 149.296 67.2396C151.377 64.7131 151.897 65.6791 151.897 65.6791Z" fill="#FF8B66"/>
<path d="M149.148 66.5709C149.182 66.797 149.231 67.0204 149.296 67.2396C148.865 67.4439 148.495 67.7568 148.221 68.1477C147.948 68.5385 147.78 68.9938 147.736 69.4689C147.581 68.8968 147.639 68.288 147.899 67.7553C148.158 67.2225 148.602 66.8018 149.148 66.5709Z" fill="#EF6E4B"/>
<path d="M144.987 66.125C144.912 65.7535 144.095 63.6728 143.426 63.227L143.203 62.7811C144.095 62.6325 144.912 65.6792 144.987 66.125Z" fill="#EF6E4B"/>
<path d="M155.241 123.862C155.241 123.862 133.172 154.106 140.082 186.133C140.082 186.133 147.587 193.043 153.458 190.666C159.328 188.288 165.347 196.907 170.623 194.158C175.899 191.409 180.432 189.328 184.073 190.814C187.714 192.3 193.807 186.133 193.807 186.133C193.807 186.133 191.132 150.688 177.682 127.281C177.682 127.281 166.759 132.334 155.241 123.862Z" fill="#FFB878"/>
<path d="M164.381 240.006C165.161 241.145 165.696 242.432 165.952 243.788C166.208 245.144 166.179 246.539 165.867 247.883H163.787C163.548 245.243 163.749 242.581 164.381 240.006Z" fill="#07262D"/>
<path d="M92.7479 157.821C92.7479 157.821 96.7606 170.528 106.569 187.545C106.569 187.545 104.934 205.602 132.874 239.04L136.738 236.885C136.738 236.885 122.323 203.298 120.019 193.341C117.715 183.383 118.681 170.082 111.176 149.276L92.7479 157.821Z" fill="#FF8B66"/>
<path d="M109.764 132.259L96.5376 126.909C94.234 134.266 88.2894 139.542 88.8095 151.059C89.0325 156.707 92.7479 162.577 92.7479 162.577C108.353 162.057 113.628 155.518 113.628 155.518L111.251 144.52C111.251 144.52 109.69 137.089 109.764 132.259Z" fill="#CE364C"/>
<path d="M78.4064 149.35C78.4064 149.35 77.9606 162.651 81.6017 181.972C81.6017 181.972 74.0222 198.394 89.1811 239.263L93.491 238.52C93.491 238.52 91.1874 202.035 92.302 191.929C93.4167 181.823 99.287 172.757 98.6926 147.418L78.4064 149.35Z" fill="#FF8B66"/>
<path d="M109.765 132.259L104.563 141.176L103.3 143.257L100.55 147.864L98.8412 160.125V160.942C85.4657 159.456 78.3321 163.617 78.3321 163.617L78.1835 162.428V162.057C78.1835 161.983 78.1835 161.983 78.1092 161.908C76.9203 158.193 75.1369 148.31 77.2175 141.622C80.6357 130.625 86.729 131.665 91.3361 125.497L109.765 132.259Z" fill="#F24052"/>
<path d="M86.506 235.473C86.506 235.473 88.2151 239.263 87.695 241.864C87.1748 244.465 85.6886 245.356 87.0262 247.883H97.5036C97.8289 246.952 97.8829 245.948 97.6592 244.987C97.4356 244.027 96.9435 243.15 96.2404 242.458C94.9029 241.047 93.8625 234.359 93.8625 234.359C93.7249 234.349 93.587 234.375 93.4619 234.433C93.3367 234.491 93.2283 234.58 93.1467 234.691C93.0651 234.802 93.013 234.932 92.9952 235.069C92.9775 235.206 92.9946 235.345 93.0451 235.473C93.0451 235.473 93.0451 232.352 90.4444 232.724C87.8436 233.096 87.9922 235.994 87.9922 235.994C87.9374 235.855 87.8532 235.729 87.7456 235.626C87.6379 235.522 87.5091 235.443 87.3681 235.393C87.2271 235.344 87.0771 235.326 86.9284 235.339C86.7796 235.353 86.6355 235.399 86.506 235.473Z" fill="#0C476B"/>
<path d="M149.222 247.883H131.611C131.611 247.883 131.165 244.093 131.908 242.904C132.651 241.715 129.159 237.108 129.159 237.108C129.159 237.108 131.537 234.136 133.617 235.845C133.617 235.845 133.395 232.204 135.995 232.204C135.995 232.204 138.447 238.371 141.197 240.601L141.42 240.749C143.5 242.235 147.216 242.607 148.702 244.688C149.029 245.144 149.246 245.67 149.337 246.224C149.427 246.779 149.388 247.346 149.222 247.883Z" fill="#0C476B"/>
<path d="M99.5843 160.348L99.3613 160.868L98.7669 160.719C87.6949 157.673 80.1155 161.24 78.0349 162.428V162.057C78.0349 161.983 78.0349 161.983 77.9606 161.908C79.655 160.948 81.4833 160.247 83.3851 159.828C82.89 154.513 82.9149 149.162 83.4594 143.851C84.3511 135.306 92.7479 130.104 92.8222 130.104L93.1195 130.55C93.0451 130.625 87.1748 134.266 84.7969 140.433C92.5993 140.359 95.6459 130.625 95.7202 130.55L96.2404 130.699C96.1661 130.847 92.9708 141.028 84.7226 141.028H84.6483C84.2699 141.951 84.0441 142.93 83.9795 143.926C83.4075 149.161 83.4075 154.443 83.9795 159.679C88.9174 158.579 94.052 158.732 98.9155 160.125L99.5843 160.348Z" fill="#CE364C"/>
<path d="M105.232 134.786C105.232 134.86 104.489 142.44 100.996 148.236L101.442 148.533C105.009 142.662 105.752 134.934 105.826 134.86L105.232 134.786Z" fill="#CE364C"/>
<path d="M129.233 131.368C129.233 131.368 127.896 137.535 126.558 137.981C125.221 138.427 126.335 134.786 126.335 134.786C126.335 134.786 116.675 130.922 112.737 130.625C108.798 130.327 114.372 122.822 129.233 131.368Z" fill="#0C476B"/>
<path d="M127.524 132.482C127.524 132.482 117.418 127.875 110.359 128.247C103.3 128.618 120.093 105.211 124.329 107.589C128.564 109.967 129.382 129.51 127.524 132.482Z" fill="#0C476B"/>
<path d="M102.334 87.6001C102.334 87.6001 103.374 84.9993 108.353 84.5534C113.331 84.1076 117.864 89.3092 116.898 92.4301C115.932 95.5511 102.334 87.6001 102.334 87.6001Z" fill="#0C476B"/>
<path d="M110.359 65.4562C110.359 65.4562 109.987 58.9171 103.894 57.8768C97.8009 56.8365 92.9709 58.3969 95.1258 67.091C97.2807 75.7851 95.8689 79.2776 91.8562 79.7234C87.8436 80.1693 88.1408 75.4135 88.1408 75.4135C87.9365 76.6567 88.1838 77.932 88.838 79.0087C89.4922 80.0854 90.5101 80.8924 91.7076 81.2839C91.7076 81.2839 87.1005 81.6554 88.7353 84.5534C90.3701 87.4515 95.4973 87.0056 97.5037 84.5534C97.5037 84.5534 97.6523 86.4855 100.179 85.8167C99.8523 85.6997 99.577 85.4722 99.4006 85.1737C99.2242 84.8751 99.1577 84.5243 99.2128 84.1819C99.2871 82.9187 106.198 85.0736 108.353 76.974C110.508 68.8744 106.198 67.4626 106.198 67.4626L110.359 65.4562Z" fill="#0E3944"/>
<path d="M121.951 91.2412C118.236 91.0925 118.087 94.7336 119.945 98.3004C121.802 101.867 139.934 118.141 142.683 115.094C143.798 113.905 140.677 108.481 140.677 108.481C136.502 104.707 132.557 100.687 128.862 96.4427C125.815 92.9502 123.809 91.3155 121.951 91.2412Z" fill="#FF8B66"/>
<path d="M145.135 109.224C146.176 103.948 144.689 89.8293 142.46 83.6617L139.339 84.4048C139.339 84.4048 139.562 100.01 138.076 104.988C136.59 109.967 137.556 113.682 140.825 115.168C144.095 116.655 144.912 110.338 145.135 109.224Z" fill="#FF8B66"/>
<path d="M135.772 80.2436C139.116 82.5471 137.927 85.7424 141.345 86.4111C141.908 86.5189 142.491 86.4129 142.98 86.1139C143.364 85.8276 143.659 85.4381 143.83 84.9908C144.001 84.5435 144.041 84.0568 143.946 83.5874C143.701 81.4158 143.677 79.225 143.872 77.0483C144.095 75.3392 143.426 75.8594 143.426 75.8594C143.426 75.8594 143.5 75.5621 143.5 75.4135C143.5 75.2649 144.169 73.5558 143.352 73.853C142.534 74.1503 141.494 77.3455 141.494 77.3455C141.717 72.5898 142.832 72.144 142.014 72.3669C141.197 72.5898 140.008 76.7511 139.934 76.8997C139.636 74.076 140.157 72.5898 139.413 73.0357C138.67 73.4815 138.67 78.6088 138.67 80.4665V81.2096C135.995 79.2032 135.772 80.2436 135.772 80.2436Z" fill="#FF8B66"/>
<path d="M138.67 80.4665V81.2096C139.139 81.2883 139.575 81.4973 139.93 81.8128C140.285 82.1282 140.544 82.5372 140.677 82.993C140.704 82.4004 140.516 81.8179 140.148 81.3533C139.779 80.8888 139.254 80.5737 138.67 80.4665Z" fill="#EF6E4B"/>
<path d="M142.534 79.1289C142.609 78.6831 142.906 76.4538 143.426 75.8594C143.946 75.2649 143.5 75.5621 143.5 75.4135C143.5 75.2649 142.534 78.6088 142.534 79.1289Z" fill="#EF6E4B"/>
<path d="M116.527 91.0183C116.527 91.0183 121.505 88.9376 127.673 92.5787C131.538 95.045 134.852 98.2832 137.407 102.09C137.407 102.09 137.481 91.1669 139.339 89.3835C139.339 89.3835 141.643 92.0586 144.466 92.5787C144.466 92.5787 151.823 107.738 147.142 117.1C142.46 126.463 128.787 117.1 128.787 117.1L116.527 91.0183Z" fill="#0C476B"/>
<path d="M91.1132 125.497C91.1132 125.497 94.7543 115.837 92.8966 110.338C89.7013 100.976 91.4104 93.0246 94.8286 90.6467C100.253 86.857 111.697 91.1668 111.697 91.1668C111.697 91.1668 122.768 89.9779 123.883 93.3961C124.998 96.8143 127.673 110.413 122.397 117.695C117.121 124.977 109.765 136.272 109.765 136.272C109.765 136.272 94.0855 134.786 91.1132 125.497Z" fill="#CFD8DC"/>
<path d="M97.5037 131.368C97.5037 131.368 95.9432 136.569 94.0112 136.272C92.0792 135.975 83.608 131.368 83.608 130.625C83.608 129.881 84.797 128.247 84.797 128.247C84.797 128.247 84.3511 124.234 85.3914 123.862C86.4317 123.491 97.5037 131.368 97.5037 131.368Z" fill="#0C476B"/>
<path d="M115.338 89.3835C115.338 89.3835 126.93 109.447 126.335 134.786C126.335 134.786 131.611 133.448 132.577 123.937C133.543 114.425 130.199 96.2941 125.592 91.5384C125.592 91.5384 122.248 88.1202 115.338 89.3835Z" fill="#105E99"/>
<path d="M105.529 88.4918C105.529 88.4918 114.149 119.404 97.5036 131.368C92.9194 130.909 88.6501 128.827 85.4657 125.497C80.487 120.073 87.2491 90.6467 87.2491 90.6467C87.2491 90.6467 96.1661 84.7764 105.529 88.4918Z" fill="#105E99"/>
<path d="M107.312 98.1518C107.312 98.1518 107.238 88.8633 106.198 86.4854C105.157 84.1076 102.334 87.6001 102.334 87.6001C102.334 87.6001 103.151 91.91 107.312 98.1518Z" fill="#0C476B"/>
<path d="M119.053 97.2601C119.053 97.2601 120.093 88.1202 116.972 86.5597C113.851 84.9993 113.777 90.6467 113.777 90.6467C113.777 90.6467 116.527 90.3495 119.053 97.2601Z" fill="#0C476B"/>
<path d="M109.987 78.5345C109.987 78.5345 110.731 84.8507 108.353 90.5724C108.353 90.5724 111.697 95.551 114.892 92.2815C115.326 87.9495 116.641 83.7519 118.756 79.9463C121.134 75.5621 109.987 78.5345 109.987 78.5345Z" fill="#EF6E4B"/>
<path d="M104.86 78.7574C104.86 78.7574 102.036 76.974 102.408 79.7234C102.78 82.4728 105.826 83.5131 106.198 82.3985C106.569 81.2839 104.86 78.7574 104.86 78.7574Z" fill="#FF8B66"/>
<path d="M120.985 75.3392C120.985 75.3392 122.768 72.5155 123.66 75.1163C124.552 77.7171 122.174 80.0206 121.357 79.2032C120.539 78.3858 120.985 75.3392 120.985 75.3392Z" fill="#FF8B66"/>
<path d="M115.189 88.2688C110.062 89.3835 106.495 86.7084 104.266 76.7511C103.077 71.5495 105.009 67.8341 110.731 66.5708C116.452 65.3076 119.499 67.9084 120.688 73.0357C123.066 83.8104 120.465 87.0799 115.189 88.2688Z" fill="#FF8B66"/>
<path d="M119.796 76.974C119.841 77.1105 119.858 77.2549 119.844 77.398C119.831 77.5412 119.788 77.6799 119.718 77.8056C119.648 77.9313 119.553 78.0412 119.438 78.1282C119.324 78.2153 119.193 78.2777 119.053 78.3115C118.805 78.4513 118.512 78.4906 118.236 78.4215C117.96 78.3524 117.72 78.1801 117.567 77.94C117.494 77.6544 117.529 77.3518 117.666 77.0909C117.804 76.83 118.033 76.6295 118.31 76.5281C118.57 76.4122 118.863 76.3934 119.136 76.4752C119.409 76.557 119.643 76.734 119.796 76.974Z" fill="#DB614D"/>
<path d="M109.393 79.6491C109.394 79.9323 109.286 80.2051 109.093 80.4121C108.9 80.6191 108.635 80.7448 108.353 80.7637C107.684 80.838 107.089 80.5408 107.015 80.0206C106.941 79.5005 107.387 78.9803 108.055 78.8317C108.34 78.7826 108.632 78.8384 108.878 78.9887C109.124 79.1391 109.307 79.3738 109.393 79.6491Z" fill="#DB614D"/>
<path d="M116.229 72.3669H116.081C115.449 72.0109 114.706 71.9049 114 72.0697C113.931 72.0956 113.854 72.0947 113.786 72.0672C113.717 72.0398 113.661 71.9876 113.629 71.921C113.629 71.7724 113.703 71.6238 113.851 71.6238C114.271 71.502 114.711 71.4656 115.145 71.5166C115.579 71.5677 115.998 71.7052 116.378 71.921C116.527 71.9953 116.527 72.144 116.452 72.2926L116.229 72.3669Z" fill="#0E3944"/>
<path d="M106.644 74.5218H106.495C106.346 74.4475 106.346 74.2989 106.421 74.1503C106.952 73.4424 107.714 72.9429 108.576 72.7384C108.724 72.7384 108.873 72.8127 108.873 72.9613C108.873 73.1099 108.798 73.2586 108.65 73.2586C107.934 73.4319 107.302 73.8531 106.866 74.4475L106.644 74.5218Z" fill="#0E3944"/>
<path d="M116.452 75.1163C116.601 75.7851 116.452 76.3795 116.081 76.4538C115.709 76.5281 115.338 76.0823 115.189 75.4135C115.04 74.7447 115.189 74.2246 115.561 74.1503C115.932 74.076 116.304 74.5218 116.452 75.1163Z" fill="#1A4850"/>
<path d="M109.393 76.7511C109.542 77.3455 109.319 77.94 109.021 78.0143C108.724 78.0886 108.278 77.6428 108.13 76.974C107.981 76.3052 108.13 75.785 108.501 75.7107C108.873 75.6364 109.244 76.0823 109.393 76.7511Z" fill="#1A4850"/>
<path d="M111.845 82.4728C113.58 82.4733 115.28 81.9839 116.749 81.0609C116.749 81.0609 117.344 84.8507 114.743 85.1479C112.142 85.4451 111.845 82.4728 111.845 82.4728Z" fill="#1A4850"/>
<path d="M114.669 75.1906C114.669 75.1906 114.817 73.5558 115.412 73.4815C116.006 73.4072 116.824 74.7448 116.824 74.7448L117.641 74.076L116.749 74.3732C116.749 74.3732 115.932 73.11 115.338 73.1843C114.743 73.2586 114.669 75.1906 114.669 75.1906Z" fill="#1A4850"/>
<path d="M109.764 76.5282C109.764 76.5282 108.947 75.042 108.353 75.2649C107.758 75.4878 107.61 76.974 107.61 76.974L106.569 76.6768H107.535C107.535 76.6768 107.684 75.1906 108.278 75.042C108.873 74.8934 109.764 76.5282 109.764 76.5282Z" fill="#1A4850"/>
<path d="M113.331 79.7234L113.034 79.2032C113.48 78.9803 113.554 78.6831 113.48 78.4601C113.464 78.3276 113.404 78.2043 113.31 78.1099C113.216 78.0156 113.092 77.9557 112.96 77.94L112.737 78.1629L112.217 78.0143C112.44 77.3455 112.885 77.3455 113.034 77.3455C113.294 77.3976 113.531 77.5302 113.711 77.7243C113.891 77.9185 114.006 78.1644 114.039 78.4274C114.072 78.6904 114.021 78.957 113.894 79.1896C113.767 79.4222 113.57 79.6089 113.331 79.7234Z" fill="#DB614D"/>
<path d="M105.306 80.5408C104.858 78.8361 104.56 77.0957 104.414 75.3392C104.261 73.5641 104.713 71.7893 105.699 70.3047C106.684 68.8201 108.143 67.7134 109.839 67.1653C111.164 66.7759 112.548 66.625 113.926 66.7195C115.051 66.8345 116.125 67.246 117.038 67.9117C117.952 68.5775 118.673 69.4738 119.127 70.5092C120.141 72.6976 120.914 74.9899 121.431 77.3455C121.997 74.8785 122.022 72.3182 121.505 69.8404C120.614 65.2333 116.898 61.4436 108.204 63.3013C100.699 64.9361 97.5036 73.9273 105.306 80.5408Z" fill="#1A4850"/>
<path d="M116.155 65.6048C116.155 65.6048 115.189 72.7384 105.529 73.6301C105.529 73.6301 111.399 71.5495 111.399 67.3882C111.399 67.3882 109.096 72.6641 103.523 72.0696C103.523 72.0696 103.002 63.5985 116.155 65.6048Z" fill="#1A4850"/>
<path d="M86.7289 92.9503C91.4847 94.2878 94.6056 101.942 93.6396 102.833C92.6736 103.725 70.4554 107.961 70.4554 107.961L83.9795 127.429L81.676 130.773C81.676 130.773 60.5724 112.122 60.7211 105.731C60.8697 99.3408 86.7289 92.9503 86.7289 92.9503Z" fill="#FF8B66"/>
<path d="M84.0538 126.909C85.651 127.073 87.2384 127.321 88.8095 127.652C90.6672 128.098 93.1194 128.618 93.1937 128.99C93.268 129.361 89.1068 128.99 89.1068 128.99C89.1068 128.99 92.525 130.402 92.5993 130.922C92.6736 131.442 88.2894 130.55 88.2894 130.55C88.2894 130.55 91.0388 132.185 90.8902 132.705C90.7416 133.225 87.3234 131.962 87.3234 131.962C87.6596 132.797 88.083 133.594 88.5866 134.34C88.5866 134.34 87.9921 134.712 86.5803 133.225C85.1684 131.739 83.1621 132.259 81.453 130.922C79.7439 129.584 82.4933 126.686 84.0538 126.909Z" fill="#FF8B66"/>
<path d="M87.2491 90.6467C87.2491 90.6467 95.4973 91.6127 95.8688 103.799C96.2404 115.986 77.8119 112.047 77.8119 112.047C77.8119 112.047 82.2704 117.249 80.9329 123.045C80.9329 123.045 75.8799 122.971 76.0285 125.497C76.0285 125.497 68.3005 126.017 60.721 115.466C53.1416 104.914 63.7677 93.2475 87.2491 90.6467Z" fill="#0C476B"/>
<path d="M129.159 102.313C129.679 104.096 129.233 105.806 128.193 106.177C127.153 106.549 125.815 105.285 125.295 103.502C124.775 101.719 125.146 100.01 126.187 99.638C127.227 99.2665 128.564 100.53 129.159 102.313Z" fill="#0C476B"/>
<path d="M105.474 104.656C105.567 102.607 104.28 100.883 102.599 100.807C100.918 100.73 99.4803 102.33 99.3872 104.38C99.2941 106.43 100.581 108.153 102.262 108.23C103.943 108.306 105.381 106.706 105.474 104.656Z" fill="#0C476B"/>
<path d="M77.7377 99.4894C75.8056 99.9352 73.8736 98.9692 73.5021 97.3345C73.1305 95.6997 74.3938 93.9163 76.4001 93.4704C78.4064 93.0246 80.3384 94.0649 80.71 95.6997C81.0815 97.3345 79.744 99.0435 77.7377 99.4894Z" fill="#105E99"/>
<path d="M87.472 244.019C87.472 244.019 90.2958 240.303 96.1661 243.276C96.1661 243.276 96.389 245.877 93.6396 245.356C90.8902 244.836 89.3298 246.843 87.472 244.019Z" fill="#105E99"/>
<path d="M148.702 244.688C144.987 246.471 137.259 242.235 137.259 242.235C138.447 242.458 140.305 241.418 141.42 240.749C143.5 242.235 147.216 242.607 148.702 244.688Z" fill="#105E99"/>
</g>
<defs>
<clipPath id="clip0_1_1021">
<rect width="320.64" height="248.933" fill="white" transform="translate(0.680023 0.659454)"/>
</clipPath>
</defs>
</svg>
